<?xml version="1.0" encoding="UTF-8" standalone="no"?><svg xmlns="http://www.w3.org/2000/svg" xmlns:xlink="http://www.w3.org/1999/xlink" contentScriptType="application/ecmascript" contentStyleType="text/css" height="875px" preserveAspectRatio="none" style="width:2252px;height:875px;" version="1.1" viewBox="0 0 2252 875" width="2252px" zoomAndPan="magnify"><defs><filter height="300%" id="f2te5lh17zzj6" width="300%" x="-1" y="-1"><feGaussianBlur result="blurOut" stdDeviation="2.0"/><feColorMatrix in="blurOut" result="blurOut2" type="matrix" values="0 0 0 0 0 0 0 0 0 0 0 0 0 0 0 0 0 0 .4 0"/><feOffset dx="4.0" dy="4.0" in="blurOut2" result="blurOut3"/><feBlend in="SourceGraphic" in2="blurOut3" mode="normal"/></filter></defs><g><!--class Fahrzeug--><rect fill="#FEFECE" filter="url(#f2te5lh17zzj6)" height="112.7754" id="Fahrzeug" style="stroke: #A80036; stroke-width: 1.5;" width="359" x="411.5" y="8"/><ellipse cx="560.25" cy="24" fill="#ADD1B2" rx="11" ry="11" style="stroke: #A80036; stroke-width: 1.0;"/><path d="M563.2231,29.6431 Q562.6421,29.9419 562.0029,30.0913 Q561.3638,30.2407 560.6582,30.2407 Q558.1514,30.2407 556.8315,28.5889 Q555.5117,26.937 555.5117,23.8159 Q555.5117,20.6865 556.8315,19.0347 Q558.1514,17.3828 560.6582,17.3828 Q561.3638,17.3828 562.0112,17.5322 Q562.6587,17.6816 563.2231,17.9805 L563.2231,20.7031 Q562.5923,20.1221 561.9988,19.8523 Q561.4053,19.5825 560.7744,19.5825 Q559.4297,19.5825 558.7449,20.6492 Q558.0601,21.7158 558.0601,23.8159 Q558.0601,25.9077 558.7449,26.9744 Q559.4297,28.041 560.7744,28.041 Q561.4053,28.041 561.9988,27.7712 Q562.5923,27.5015 563.2231,26.9204 Z "/><text fill="#000000" font-family="sans-serif" font-size="12" lengthAdjust="spacingAndGlyphs" textLength="53" x="580.75" y="28.5352">Fahrzeug</text><line style="stroke: #A80036; stroke-width: 1.5;" x1="412.5" x2="769.5" y1="40" y2="40"/><rect fill="none" height="6" style="stroke: #C82930; stroke-width: 1.0;" width="6" x="419.5" y="48.9775"/><text fill="#000000" font-family="sans-serif" font-size="11" lengthAdjust="spacingAndGlyphs" textLength="89" x="431.5" y="54.6348">hersteller: String</text><rect fill="none" height="6" style="stroke: #C82930; stroke-width: 1.0;" width="6" x="419.5" y="61.9326"/><text fill="#000000" font-family="sans-serif" font-size="11" lengthAdjust="spacingAndGlyphs" textLength="74" x="431.5" y="67.5898">modell: String</text><rect fill="none" height="6" style="stroke: #C82930; stroke-width: 1.0;" width="6" x="419.5" y="74.8877"/><text fill="#000000" font-family="sans-serif" font-size="11" lengthAdjust="spacingAndGlyphs" textLength="100" x="431.5" y="80.5449">bremsen: Bremse[]</text><line style="stroke: #A80036; stroke-width: 1.5;" x1="412.5" x2="769.5" y1="86.8652" y2="86.8652"/><ellipse cx="422.5" cy="98.8428" fill="#84BE84" rx="3" ry="3" style="stroke: #038048; stroke-width: 1.0;"/><text fill="#000000" font-family="sans-serif" font-size="11" lengthAdjust="spacingAndGlyphs" textLength="333" x="431.5" y="101.5">Fahrzeug(hersteller: String, modell: String, bremsen: Bremse[])</text><ellipse cx="422.5" cy="111.7979" fill="#84BE84" rx="3" ry="3" style="stroke: #038048; stroke-width: 1.0;"/><text fill="#000000" font-family="sans-serif" font-size="11" lengthAdjust="spacingAndGlyphs" textLength="89" x="431.5" y="114.4551">toString(): String</text><!--class Bremse--><rect fill="#FEFECE" filter="url(#f2te5lh17zzj6)" height="73.9102" id="Bremse" style="stroke: #A80036; stroke-width: 1.5;" width="163" x="325.5" y="386.5"/><ellipse cx="381.25" cy="402.5" fill="#B4A7E5" rx="11" ry="11" style="stroke: #A80036; stroke-width: 1.0;"/><path d="M377.1777,398.2651 L377.1777,396.1069 L384.5571,396.1069 L384.5571,398.2651 L382.0918,398.2651 L382.0918,406.3418 L384.5571,406.3418 L384.5571,408.5 L377.1777,408.5 L377.1777,406.3418 L379.6431,406.3418 L379.6431,398.2651 Z "/><text fill="#000000" font-family="sans-serif" font-size="12" font-style="italic" lengthAdjust="spacingAndGlyphs" textLength="43" x="401.75" y="407.0352">Bremse</text><line style="stroke: #A80036; stroke-width: 1.5;" x1="326.5" x2="487.5" y1="418.5" y2="418.5"/><line style="stroke: #A80036; stroke-width: 1.5;" x1="326.5" x2="487.5" y1="426.5" y2="426.5"/><ellipse cx="336.5" cy="438.4775" fill="#84BE84" rx="3" ry="3" style="stroke: #038048; stroke-width: 1.0;"/><text fill="#000000" font-family="sans-serif" font-size="11" lengthAdjust="spacingAndGlyphs" textLength="55" x="345.5" y="441.1348">bremsen()</text><ellipse cx="336.5" cy="451.4326" fill="#84BE84" rx="3" ry="3" style="stroke: #038048; stroke-width: 1.0;"/><text fill="#000000" font-family="sans-serif" font-size="11" lengthAdjust="spacingAndGlyphs" textLength="137" x="345.5" y="454.0898">brauchtService(): boolean</text><!--class Cantileverbremse--><rect fill="#FEFECE" filter="url(#f2te5lh17zzj6)" height="125.7305" id="Cantileverbremse" style="stroke: #A80036; stroke-width: 1.5;" width="168" x="256" y="540"/><ellipse cx="286.75" cy="556" fill="#ADD1B2" rx="11" ry="11" style="stroke: #A80036; stroke-width: 1.0;"/><path d="M289.7231,561.6431 Q289.1421,561.9419 288.5029,562.0913 Q287.8638,562.2407 287.1582,562.2407 Q284.6514,562.2407 283.3315,560.5889 Q282.0117,558.937 282.0117,555.8159 Q282.0117,552.6865 283.3315,551.0347 Q284.6514,549.3828 287.1582,549.3828 Q287.8638,549.3828 288.5112,549.5322 Q289.1587,549.6816 289.7231,549.9805 L289.7231,552.7031 Q289.0923,552.1221 288.4988,551.8523 Q287.9053,551.5825 287.2744,551.5825 Q285.9297,551.5825 285.2449,552.6492 Q284.5601,553.7158 284.5601,555.8159 Q284.5601,557.9077 285.2449,558.9744 Q285.9297,560.041 287.2744,560.041 Q287.9053,560.041 288.4988,559.7712 Q289.0923,559.5015 289.7231,558.9204 Z "/><text fill="#000000" font-family="sans-serif" font-size="12" lengthAdjust="spacingAndGlyphs" textLength="101" x="304.25" y="560.5352">Cantileverbremse</text><line style="stroke: #A80036; stroke-width: 1.5;" x1="257" x2="423" y1="572" y2="572"/><rect fill="none" height="6" style="stroke: #C82930; stroke-width: 1.0;" width="6" x="264" y="580.9775"/><text fill="#000000" font-family="sans-serif" font-size="11" lengthAdjust="spacingAndGlyphs" textLength="142" x="276" y="586.6348">static final MAX_BELAG: int</text><rect fill="none" height="6" style="stroke: #C82930; stroke-width: 1.0;" width="6" x="264" y="593.9326"/><text fill="#000000" font-family="sans-serif" font-size="11" lengthAdjust="spacingAndGlyphs" textLength="138" x="276" y="599.5898">static final MIN_BELAG: int</text><rect fill="none" height="6" style="stroke: #C82930; stroke-width: 1.0;" width="6" x="264" y="606.8877"/><text fill="#000000" font-family="sans-serif" font-size="11" lengthAdjust="spacingAndGlyphs" textLength="77" x="276" y="612.5449">belagLinks: int</text><rect fill="none" height="6" style="stroke: #C82930; stroke-width: 1.0;" width="6" x="264" y="619.8428"/><text fill="#000000" font-family="sans-serif" font-size="11" lengthAdjust="spacingAndGlyphs" textLength="85" x="276" y="625.5">belagRechts: int</text><line style="stroke: #A80036; stroke-width: 1.5;" x1="257" x2="423" y1="631.8203" y2="631.8203"/><ellipse cx="267" cy="643.7979" fill="#84BE84" rx="3" ry="3" style="stroke: #038048; stroke-width: 1.0;"/><text fill="#000000" font-family="sans-serif" font-size="11" lengthAdjust="spacingAndGlyphs" textLength="55" x="276" y="646.4551">bremsen()</text><ellipse cx="267" cy="656.7529" fill="#84BE84" rx="3" ry="3" style="stroke: #038048; stroke-width: 1.0;"/><text fill="#000000" font-family="sans-serif" font-size="11" lengthAdjust="spacingAndGlyphs" textLength="137" x="276" y="659.4102">brauchtService(): boolean</text><!--class Scheibenbremse--><rect fill="#FEFECE" filter="url(#f2te5lh17zzj6)" height="138.6855" id="Scheibenbremse" style="stroke: #A80036; stroke-width: 1.5;" width="198" x="1293" y="726"/><ellipse cx="1340.25" cy="742" fill="#ADD1B2" rx="11" ry="11" style="stroke: #A80036; stroke-width: 1.0;"/><path d="M1343.2231,747.6431 Q1342.6421,747.9419 1342.0029,748.0913 Q1341.3638,748.2407 1340.6582,748.2407 Q1338.1514,748.2407 1336.8315,746.5889 Q1335.5117,744.937 1335.5117,741.8159 Q1335.5117,738.6865 1336.8315,737.0347 Q1338.1514,735.3828 1340.6582,735.3828 Q1341.3638,735.3828 1342.0112,735.5322 Q1342.6587,735.6816 1343.2231,735.9805 L1343.2231,738.7031 Q1342.5923,738.1221 1341.9988,737.8523 Q1341.4053,737.5825 1340.7744,737.5825 Q1339.4297,737.5825 1338.7449,738.6492 Q1338.0601,739.7158 1338.0601,741.8159 Q1338.0601,743.9077 1338.7449,744.9744 Q1339.4297,746.041 1340.7744,746.041 Q1341.4053,746.041 1341.9988,745.7712 Q1342.5923,745.5015 1343.2231,744.9204 Z "/><text fill="#000000" font-family="sans-serif" font-size="12" lengthAdjust="spacingAndGlyphs" textLength="95" x="1360.75" y="746.5352">Scheibenbremse</text><line style="stroke: #A80036; stroke-width: 1.5;" x1="1294" x2="1490" y1="758" y2="758"/><rect fill="none" height="6" style="stroke: #C82930; stroke-width: 1.0;" width="6" x="1301" y="766.9775"/><text fill="#000000" font-family="sans-serif" font-size="11" lengthAdjust="spacingAndGlyphs" textLength="172" x="1313" y="772.6348">static final MAX_RIEFENTIEFE: int</text><rect fill="none" height="6" style="stroke: #C82930; stroke-width: 1.0;" width="6" x="1301" y="779.9326"/><text fill="#000000" font-family="sans-serif" font-size="11" lengthAdjust="spacingAndGlyphs" textLength="138" x="1313" y="785.5898">static final MIN_BELAG: int</text><rect fill="none" height="6" style="stroke: #C82930; stroke-width: 1.0;" width="6" x="1301" y="792.8877"/><text fill="#000000" font-family="sans-serif" font-size="11" lengthAdjust="spacingAndGlyphs" textLength="142" x="1313" y="798.5449">static final MAX_BELAG: int</text><rect fill="none" height="6" style="stroke: #C82930; stroke-width: 1.0;" width="6" x="1301" y="805.8428"/><text fill="#000000" font-family="sans-serif" font-size="11" lengthAdjust="spacingAndGlyphs" textLength="74" x="1313" y="811.5">riefentiefe: int</text><rect fill="none" height="6" style="stroke: #C82930; stroke-width: 1.0;" width="6" x="1301" y="818.7979"/><text fill="#000000" font-family="sans-serif" font-size="11" lengthAdjust="spacingAndGlyphs" textLength="49" x="1313" y="824.4551">belag: int</text><line style="stroke: #A80036; stroke-width: 1.5;" x1="1294" x2="1490" y1="830.7754" y2="830.7754"/><ellipse cx="1304" cy="842.7529" fill="#84BE84" rx="3" ry="3" style="stroke: #038048; stroke-width: 1.0;"/><text fill="#000000" font-family="sans-serif" font-size="11" lengthAdjust="spacingAndGlyphs" textLength="55" x="1313" y="845.4102">bremsen()</text><ellipse cx="1304" cy="855.708" fill="#84BE84" rx="3" ry="3" style="stroke: #038048; stroke-width: 1.0;"/><text fill="#000000" font-family="sans-serif" font-size="11" lengthAdjust="spacingAndGlyphs" textLength="137" x="1313" y="858.3652">brauchtService(): boolean</text><!--class Trommelbremse--><rect fill="#FEFECE" filter="url(#f2te5lh17zzj6)" height="112.7754" id="Trommelbremse" style="stroke: #A80036; stroke-width: 1.5;" width="168" x="855" y="739"/><ellipse cx="888" cy="755" fill="#ADD1B2" rx="11" ry="11" style="stroke: #A80036; stroke-width: 1.0;"/><path d="M890.9731,760.6431 Q890.3921,760.9419 889.7529,761.0913 Q889.1138,761.2407 888.4082,761.2407 Q885.9014,761.2407 884.5815,759.5889 Q883.2617,757.937 883.2617,754.8159 Q883.2617,751.6865 884.5815,750.0347 Q885.9014,748.3828 888.4082,748.3828 Q889.1138,748.3828 889.7612,748.5322 Q890.4087,748.6816 890.9731,748.9805 L890.9731,751.7031 Q890.3423,751.1221 889.7488,750.8523 Q889.1553,750.5825 888.5244,750.5825 Q887.1797,750.5825 886.4949,751.6492 Q885.8101,752.7158 885.8101,754.8159 Q885.8101,756.9077 886.4949,757.9744 Q887.1797,759.041 888.5244,759.041 Q889.1553,759.041 889.7488,758.7712 Q890.3423,758.5015 890.9731,757.9204 Z "/><text fill="#000000" font-family="sans-serif" font-size="12" lengthAdjust="spacingAndGlyphs" textLength="96" x="906" y="759.5352">Trommelbremse</text><line style="stroke: #A80036; stroke-width: 1.5;" x1="856" x2="1022" y1="771" y2="771"/><rect fill="none" height="6" style="stroke: #C82930; stroke-width: 1.0;" width="6" x="863" y="779.9775"/><text fill="#000000" font-family="sans-serif" font-size="11" lengthAdjust="spacingAndGlyphs" textLength="138" x="875" y="785.6348">static final MIN_BELAG: int</text><rect fill="none" height="6" style="stroke: #C82930; stroke-width: 1.0;" width="6" x="863" y="792.9326"/><text fill="#000000" font-family="sans-serif" font-size="11" lengthAdjust="spacingAndGlyphs" textLength="142" x="875" y="798.5898">static final MAX_BELAG: int</text><rect fill="none" height="6" style="stroke: #C82930; stroke-width: 1.0;" width="6" x="863" y="805.8877"/><text fill="#000000" font-family="sans-serif" font-size="11" lengthAdjust="spacingAndGlyphs" textLength="49" x="875" y="811.5449">belag: int</text><line style="stroke: #A80036; stroke-width: 1.5;" x1="856" x2="1022" y1="817.8652" y2="817.8652"/><ellipse cx="866" cy="829.8428" fill="#84BE84" rx="3" ry="3" style="stroke: #038048; stroke-width: 1.0;"/><text fill="#000000" font-family="sans-serif" font-size="11" lengthAdjust="spacingAndGlyphs" textLength="55" x="875" y="832.5">bremsen()</text><ellipse cx="866" cy="842.7979" fill="#84BE84" rx="3" ry="3" style="stroke: #038048; stroke-width: 1.0;"/><text fill="#000000" font-family="sans-serif" font-size="11" lengthAdjust="spacingAndGlyphs" textLength="88" x="875" y="845.4551">brauchtService()</text><!--class Fahrrad--><rect fill="#FEFECE" filter="url(#f2te5lh17zzj6)" height="99.8203" id="Fahrrad" style="stroke: #A80036; stroke-width: 1.5;" width="532" x="6" y="194"/><ellipse cx="245.25" cy="210" fill="#ADD1B2" rx="11" ry="11" style="stroke: #A80036; stroke-width: 1.0;"/><path d="M248.2231,215.6431 Q247.6421,215.9419 247.0029,216.0913 Q246.3638,216.2407 245.6582,216.2407 Q243.1514,216.2407 241.8315,214.5889 Q240.5117,212.937 240.5117,209.8159 Q240.5117,206.6865 241.8315,205.0347 Q243.1514,203.3828 245.6582,203.3828 Q246.3638,203.3828 247.0112,203.5322 Q247.6587,203.6816 248.2231,203.9805 L248.2231,206.7031 Q247.5923,206.1221 246.9988,205.8523 Q246.4053,205.5825 245.7744,205.5825 Q244.4297,205.5825 243.7449,206.6492 Q243.0601,207.7158 243.0601,209.8159 Q243.0601,211.9077 243.7449,212.9744 Q244.4297,214.041 245.7744,214.041 Q246.4053,214.041 246.9988,213.7712 Q247.5923,213.5015 248.2231,212.9204 Z "/><text fill="#000000" font-family="sans-serif" font-size="12" lengthAdjust="spacingAndGlyphs" textLength="45" x="265.75" y="214.5352">Fahrrad</text><line style="stroke: #A80036; stroke-width: 1.5;" x1="7" x2="537" y1="226" y2="226"/><rect fill="none" height="6" style="stroke: #C82930; stroke-width: 1.0;" width="6" x="14" y="234.9775"/><text fill="#000000" font-family="sans-serif" font-size="11" lengthAdjust="spacingAndGlyphs" textLength="59" x="26" y="240.6348">gaenge: int</text><rect fill="none" height="6" style="stroke: #C82930; stroke-width: 1.0;" width="6" x="14" y="247.9326"/><text fill="#000000" font-family="sans-serif" font-size="11" lengthAdjust="spacingAndGlyphs" textLength="110" x="26" y="253.5898">ruecktrittbremse: int</text><line style="stroke: #A80036; stroke-width: 1.5;" x1="7" x2="537" y1="259.9102" y2="259.9102"/><ellipse cx="17" cy="271.8877" fill="#84BE84" rx="3" ry="3" style="stroke: #038048; stroke-width: 1.0;"/><text fill="#000000" font-family="sans-serif" font-size="11" lengthAdjust="spacingAndGlyphs" textLength="506" x="26" y="274.5449">Fahrrad(hersteller: String, modell: String, bremsen: Bremse[], gaenge: int, ruecktrittbremse: int)</text><ellipse cx="17" cy="284.8428" fill="#84BE84" rx="3" ry="3" style="stroke: #038048; stroke-width: 1.0;"/><text fill="#000000" font-family="sans-serif" font-size="11" lengthAdjust="spacingAndGlyphs" textLength="89" x="26" y="287.5">toString(): String</text><!--class Kraftfahrzeug--><rect fill="#FEFECE" filter="url(#f2te5lh17zzj6)" height="125.7305" id="Kraftfahrzeug" style="stroke: #A80036; stroke-width: 1.5;" width="716" x="847" y="181"/><ellipse cx="1161.25" cy="197" fill="#ADD1B2" rx="11" ry="11" style="stroke: #A80036; stroke-width: 1.0;"/><path d="M1164.2231,202.6431 Q1163.6421,202.9419 1163.0029,203.0913 Q1162.3638,203.2407 1161.6582,203.2407 Q1159.1514,203.2407 1157.8315,201.5889 Q1156.5117,199.937 1156.5117,196.8159 Q1156.5117,193.6865 1157.8315,192.0347 Q1159.1514,190.3828 1161.6582,190.3828 Q1162.3638,190.3828 1163.0112,190.5322 Q1163.6587,190.6816 1164.2231,190.9805 L1164.2231,193.7031 Q1163.5923,193.1221 1162.9988,192.8523 Q1162.4053,192.5825 1161.7744,192.5825 Q1160.4297,192.5825 1159.7449,193.6492 Q1159.0601,194.7158 1159.0601,196.8159 Q1159.0601,198.9077 1159.7449,199.9744 Q1160.4297,201.041 1161.7744,201.041 Q1162.4053,201.041 1162.9988,200.7712 Q1163.5923,200.5015 1164.2231,199.9204 Z "/><text fill="#000000" font-family="sans-serif" font-size="12" lengthAdjust="spacingAndGlyphs" textLength="79" x="1181.75" y="201.5352">Kraftfahrzeug</text><line style="stroke: #A80036; stroke-width: 1.5;" x1="848" x2="1562" y1="213" y2="213"/><rect fill="none" height="6" style="stroke: #C82930; stroke-width: 1.0;" width="6" x="855" y="221.9775"/><text fill="#000000" font-family="sans-serif" font-size="11" lengthAdjust="spacingAndGlyphs" textLength="33" x="867" y="227.6348">ps: int</text><rect fill="none" height="6" style="stroke: #C82930; stroke-width: 1.0;" width="6" x="855" y="234.9326"/><text fill="#000000" font-family="sans-serif" font-size="11" lengthAdjust="spacingAndGlyphs" textLength="69" x="867" y="240.5898">hubraum: int</text><rect fill="none" height="6" style="stroke: #C82930; stroke-width: 1.0;" width="6" x="855" y="247.8877"/><text fill="#000000" font-family="sans-serif" font-size="11" lengthAdjust="spacingAndGlyphs" textLength="89" x="867" y="253.5449">tankvolumen: int</text><rect fill="none" height="6" style="stroke: #C82930; stroke-width: 1.0;" width="6" x="855" y="260.8428"/><text fill="#000000" font-family="sans-serif" font-size="11" lengthAdjust="spacingAndGlyphs" textLength="118" x="867" y="266.5">zulGesamtGewicht: int</text><line style="stroke: #A80036; stroke-width: 1.5;" x1="848" x2="1562" y1="272.8203" y2="272.8203"/><ellipse cx="858" cy="284.7979" fill="#84BE84" rx="3" ry="3" style="stroke: #038048; stroke-width: 1.0;"/><text fill="#000000" font-family="sans-serif" font-size="11" lengthAdjust="spacingAndGlyphs" textLength="690" x="867" y="287.4551">Kraftfahrzeug(hersteller: String, modell: String, bremsen: Bremse[], ps: int, hubraum: int, tankvolumen: int, zulGesamtGewicht: int)</text><ellipse cx="858" cy="297.7529" fill="#84BE84" rx="3" ry="3" style="stroke: #038048; stroke-width: 1.0;"/><text fill="#000000" font-family="sans-serif" font-size="11" lengthAdjust="spacingAndGlyphs" textLength="89" x="867" y="300.4102">toString(): String</text><!--class Auto--><rect fill="#FEFECE" filter="url(#f2te5lh17zzj6)" height="99.8203" id="Auto" style="stroke: #A80036; stroke-width: 1.5;" width="780" x="1461" y="373.5"/><ellipse cx="1833.75" cy="389.5" fill="#ADD1B2" rx="11" ry="11" style="stroke: #A80036; stroke-width: 1.0;"/><path d="M1836.7231,395.1431 Q1836.1421,395.4419 1835.5029,395.5913 Q1834.8638,395.7407 1834.1582,395.7407 Q1831.6514,395.7407 1830.3315,394.0889 Q1829.0117,392.437 1829.0117,389.3159 Q1829.0117,386.1865 1830.3315,384.5347 Q1831.6514,382.8828 1834.1582,382.8828 Q1834.8638,382.8828 1835.5112,383.0322 Q1836.1587,383.1816 1836.7231,383.4805 L1836.7231,386.2031 Q1836.0923,385.6221 1835.4988,385.3523 Q1834.9053,385.0825 1834.2744,385.0825 Q1832.9297,385.0825 1832.2449,386.1492 Q1831.5601,387.2158 1831.5601,389.3159 Q1831.5601,391.4077 1832.2449,392.4744 Q1832.9297,393.541 1834.2744,393.541 Q1834.9053,393.541 1835.4988,393.2712 Q1836.0923,393.0015 1836.7231,392.4204 Z "/><text fill="#000000" font-family="sans-serif" font-size="12" lengthAdjust="spacingAndGlyphs" textLength="26" x="1854.25" y="394.0352">Auto</text><line style="stroke: #A80036; stroke-width: 1.5;" x1="1462" x2="2240" y1="405.5" y2="405.5"/><rect fill="none" height="6" style="stroke: #C82930; stroke-width: 1.0;" width="6" x="1469" y="414.4775"/><text fill="#000000" font-family="sans-serif" font-size="11" lengthAdjust="spacingAndGlyphs" textLength="45" x="1481" y="420.1348">sitze: int</text><rect fill="none" height="6" style="stroke: #C82930; stroke-width: 1.0;" width="6" x="1469" y="427.4326"/><text fill="#000000" font-family="sans-serif" font-size="11" lengthAdjust="spacingAndGlyphs" textLength="55" x="1481" y="433.0898">tueren: int</text><line style="stroke: #A80036; stroke-width: 1.5;" x1="1462" x2="2240" y1="439.4102" y2="439.4102"/><ellipse cx="1472" cy="451.3877" fill="#84BE84" rx="3" ry="3" style="stroke: #038048; stroke-width: 1.0;"/><text fill="#000000" font-family="sans-serif" font-size="11" lengthAdjust="spacingAndGlyphs" textLength="754" x="1481" y="454.0449">Auto(hersteller: String, modell: String, bremsen: Bremse[], ps: int, hubraum: int, tankvolumen: int, zulGesamtGewicht: int, sitze: int, tueren: int)</text><ellipse cx="1472" cy="464.3428" fill="#84BE84" rx="3" ry="3" style="stroke: #038048; stroke-width: 1.0;"/><text fill="#000000" font-family="sans-serif" font-size="11" lengthAdjust="spacingAndGlyphs" textLength="89" x="1481" y="467">toString(): String</text><!--class Lastwagen--><rect fill="#FEFECE" filter="url(#f2te5lh17zzj6)" height="112.7754" id="Lastwagen" style="stroke: #A80036; stroke-width: 1.5;" width="831" x="523.5" y="367"/><ellipse cx="904.75" cy="383" fill="#ADD1B2" rx="11" ry="11" style="stroke: #A80036; stroke-width: 1.0;"/><path d="M907.7231,388.6431 Q907.1421,388.9419 906.5029,389.0913 Q905.8638,389.2407 905.1582,389.2407 Q902.6514,389.2407 901.3315,387.5889 Q900.0117,385.937 900.0117,382.8159 Q900.0117,379.6865 901.3315,378.0347 Q902.6514,376.3828 905.1582,376.3828 Q905.8638,376.3828 906.5112,376.5322 Q907.1587,376.6816 907.7231,376.9805 L907.7231,379.7031 Q907.0923,379.1221 906.4988,378.8523 Q905.9053,378.5825 905.2744,378.5825 Q903.9297,378.5825 903.2449,379.6492 Q902.5601,380.7158 902.5601,382.8159 Q902.5601,384.9077 903.2449,385.9744 Q903.9297,387.041 905.2744,387.041 Q905.9053,387.041 906.4988,386.7712 Q907.0923,386.5015 907.7231,385.9204 Z "/><text fill="#000000" font-family="sans-serif" font-size="12" lengthAdjust="spacingAndGlyphs" textLength="60" x="925.25" y="387.5352">Lastwagen</text><line style="stroke: #A80036; stroke-width: 1.5;" x1="524.5" x2="1353.5" y1="399" y2="399"/><rect fill="none" height="6" style="stroke: #C82930; stroke-width: 1.0;" width="6" x="531.5" y="407.9775"/><text fill="#000000" font-family="sans-serif" font-size="11" lengthAdjust="spacingAndGlyphs" textLength="58" x="543.5" y="413.6348">achsen: int</text><rect fill="none" height="6" style="stroke: #C82930; stroke-width: 1.0;" width="6" x="531.5" y="420.9326"/><text fill="#000000" font-family="sans-serif" font-size="11" lengthAdjust="spacingAndGlyphs" textLength="63" x="543.5" y="426.5898">nutzlast: int</text><line style="stroke: #A80036; stroke-width: 1.5;" x1="524.5" x2="1353.5" y1="432.9102" y2="432.9102"/><ellipse cx="534.5" cy="444.8877" fill="#84BE84" rx="3" ry="3" style="stroke: #038048; stroke-width: 1.0;"/><text fill="#000000" font-family="sans-serif" font-size="11" lengthAdjust="spacingAndGlyphs" textLength="805" x="543.5" y="447.5449">Lastwagen(hersteller: String, modell: String, bremsen: Bremse[], ps: int, hubraum: int, tankvolumen: int, zulGesamtGewicht: int, achsen: int, nutzlast: int)</text><ellipse cx="534.5" cy="457.8428" fill="#84BE84" rx="3" ry="3" style="stroke: #038048; stroke-width: 1.0;"/><text fill="#000000" font-family="sans-serif" font-size="11" lengthAdjust="spacingAndGlyphs" textLength="89" x="543.5" y="460.5">toString(): String</text><rect fill="#F24D5C" height="6" style="stroke: #C82930; stroke-width: 1.0;" width="6" x="531.5" y="467.7979"/><text fill="#000000" font-family="sans-serif" font-size="11" lengthAdjust="spacingAndGlyphs" textLength="205" x="543.5" y="473.4551">static erstelleBremsen(n: int): Bremse[]</text><!--class Motorrad--><rect fill="#FEFECE" filter="url(#f2te5lh17zzj6)" height="73.9102" id="Motorrad" style="stroke: #A80036; stroke-width: 1.5;" width="568" x="1108" y="566"/><ellipse cx="1361.25" cy="582" fill="#ADD1B2" rx="11" ry="11" style="stroke: #A80036; stroke-width: 1.0;"/><path d="M1364.2231,587.6431 Q1363.6421,587.9419 1363.0029,588.0913 Q1362.3638,588.2407 1361.6582,588.2407 Q1359.1514,588.2407 1357.8315,586.5889 Q1356.5117,584.937 1356.5117,581.8159 Q1356.5117,578.6865 1357.8315,577.0347 Q1359.1514,575.3828 1361.6582,575.3828 Q1362.3638,575.3828 1363.0112,575.5322 Q1363.6587,575.6816 1364.2231,575.9805 L1364.2231,578.7031 Q1363.5923,578.1221 1362.9988,577.8523 Q1362.4053,577.5825 1361.7744,577.5825 Q1360.4297,577.5825 1359.7449,578.6492 Q1359.0601,579.7158 1359.0601,581.8159 Q1359.0601,583.9077 1359.7449,584.9744 Q1360.4297,586.041 1361.7744,586.041 Q1362.4053,586.041 1362.9988,585.7712 Q1363.5923,585.5015 1364.2231,584.9204 Z "/><text fill="#000000" font-family="sans-serif" font-size="12" lengthAdjust="spacingAndGlyphs" textLength="53" x="1381.75" y="586.5352">Motorrad</text><line style="stroke: #A80036; stroke-width: 1.5;" x1="1109" x2="1675" y1="598" y2="598"/><ellipse cx="1119" cy="609.9775" fill="none" rx="3" ry="3" style="stroke: #038048; stroke-width: 1.0;"/><text fill="#000000" font-family="sans-serif" font-size="11" lengthAdjust="spacingAndGlyphs" textLength="81" x="1128" y="612.6348">toString: String</text><line style="stroke: #A80036; stroke-width: 1.5;" x1="1109" x2="1675" y1="618.9551" y2="618.9551"/><ellipse cx="1119" cy="630.9326" fill="#84BE84" rx="3" ry="3" style="stroke: #038048; stroke-width: 1.0;"/><text fill="#000000" font-family="sans-serif" font-size="11" lengthAdjust="spacingAndGlyphs" textLength="542" x="1128" y="633.5898">Motorrad(hersteller: String, modell: String, bremsen: Bremse[], ps: int, hubraum: int, tankvolumen: int)</text><!--link Fahrzeug to Bremse--><path d="M593.9924,134.2819 C593.142,185.3277 585.4365,254.5318 555,307 C536.0486,339.6695 504.0716,366.5741 474.6802,386.2658 " fill="none" id="Fahrzeug-Bremse" style="stroke: #A80036; stroke-width: 1.0;"/><polygon fill="#FFFFFF" points="594.0675,121.0572,590.0334,127.0343,593.9992,133.057,598.0333,127.0799,594.0675,121.0572" style="stroke: #A80036; stroke-width: 1.0;"/><!--link Bremse to Cantileverbremse--><path d="M386.0825,479.5401 C378.9598,498.6226 370.9492,520.0838 363.6291,539.6953 " fill="none" id="Bremse-Cantileverbremse" style="stroke: #A80036; stroke-width: 1.0; stroke-dasharray: 7.0,7.0;"/><polygon fill="none" points="379.5656,476.9819,393.1176,460.6925,392.6817,481.8777,379.5656,476.9819" style="stroke: #A80036; stroke-width: 1.0;"/><!--link Bremse to Scheibenbremse--><path d="M485.4355,470.1873 C492.3019,473.6846 499.2183,477.0094 506,480 C585.4769,515.0472 609.8539,511.7703 692,540 C907.331,613.999 1157.4413,707.013 1292.7317,757.9203 " fill="none" id="Bremse-Scheibenbremse" style="stroke: #A80036; stroke-width: 1.0; stroke-dasharray: 7.0,7.0;"/><polygon fill="none" points="481.8658,476.2171,467.5029,460.6381,488.4461,463.8599,481.8658,476.2171" style="stroke: #A80036; stroke-width: 1.0;"/><!--link Bremse to Trommelbremse--><path d="M476.4418,472.0571 C574.6178,540.7065 753.616,665.8706 857.8117,738.7293 " fill="none" id="Bremse-Trommelbremse" style="stroke: #A80036; stroke-width: 1.0; stroke-dasharray: 7.0,7.0;"/><polygon fill="none" points="472.3342,477.7265,459.9552,460.5288,480.357,466.2532,472.3342,477.7265" style="stroke: #A80036; stroke-width: 1.0;"/><!--link Fahrzeug to Fahrrad--><path d="M472.8977,130.9557 C435.8535,151.8003 395.6086,174.4459 360.9359,193.9561 " fill="none" id="Fahrzeug-Fahrrad" style="stroke: #A80036; stroke-width: 1.0;"/><polygon fill="none" points="469.6414,124.7559,490.5043,121.0485,476.5069,136.9569,469.6414,124.7559" style="stroke: #A80036; stroke-width: 1.0;"/><!--link Fahrrad to Cantileverbremse--><path d="M279.861,307.3697 C286.214,355.0654 296.0498,421.9277 308,480 C312.0249,499.559 317.2032,520.6609 322.2164,539.7705 " fill="none" id="Fahrrad-Cantileverbremse" style="stroke: #A80036; stroke-width: 1.0;"/><polygon fill="#A80036" points="278.1627,294.4485,274.9788,300.9186,279.7267,306.3461,282.9106,299.876,278.1627,294.4485" style="stroke: #A80036; stroke-width: 1.0;"/><!--link Fahrzeug to Kraftfahrzeug--><path d="M790.175,122.7279 C853.8428,141.3408 924.598,162.0258 989.3802,180.9646 " fill="none" id="Fahrzeug-Kraftfahrzeug" style="stroke: #A80036; stroke-width: 1.0;"/><polygon fill="none" points="787.8903,129.353,770.658,117.0222,791.8188,115.9155,787.8903,129.353" style="stroke: #A80036; stroke-width: 1.0;"/><!--link Kraftfahrzeug to Auto--><path d="M1451.2835,312.4333 C1524.3239,332.7285 1602.9194,354.5674 1670.9264,373.4641 " fill="none" id="Kraftfahrzeug-Auto" style="stroke: #A80036; stroke-width: 1.0;"/><polygon fill="none" points="1449.2429,319.1315,1431.8471,307.0326,1452.9911,305.6426,1449.2429,319.1315" style="stroke: #A80036; stroke-width: 1.0;"/><!--link Auto to Scheibenbremse--><path d="M1823.6578,485.7232 C1797.2417,539.637 1752.6322,616.5482 1694,666 C1635.1291,715.653 1554.365,748.9505 1491.1697,769.3343 " fill="none" id="Auto-Scheibenbremse" style="stroke: #A80036; stroke-width: 1.0;"/><polygon fill="#A80036" points="1829.3374,473.9071,1823.1329,477.582,1824.1388,484.7226,1830.3433,481.0477,1829.3374,473.9071" style="stroke: #A80036; stroke-width: 1.0;"/><!--link Kraftfahrzeug to Lastwagen--><path d="M1094.7441,318.402 C1070.7164,334.6162 1045.668,351.5192 1022.8624,366.9086 " fill="none" id="Kraftfahrzeug-Lastwagen" style="stroke: #A80036; stroke-width: 1.0;"/><polygon fill="none" points="1091.0984,312.4175,1111.5924,307.0326,1098.9295,324.0224,1091.0984,312.4175" style="stroke: #A80036; stroke-width: 1.0;"/><!--link Lastwagen to Trommelbremse--><path d="M939,493.6495 C939,564.682 939,673.1708 939,738.9076 " fill="none" id="Lastwagen-Trommelbremse" style="stroke: #A80036; stroke-width: 1.0;"/><polygon fill="#A80036" points="939,480.4037,935,486.4037,939,492.4037,943,486.4037,939,480.4037" style="stroke: #A80036; stroke-width: 1.0;"/><!--link Kraftfahrzeug to Motorrad--><path d="M1334.1975,320.3524 C1349.0425,334.1141 1362.3054,349.6789 1372,367 C1407.1447,429.7922 1403.586,517.0186 1397.8156,565.9302 " fill="none" id="Kraftfahrzeug-Motorrad" style="stroke: #A80036; stroke-width: 1.0;"/><polygon fill="none" points="1329.4968,325.5424,1318.8988,307.1935,1338.6262,314.9285,1329.4968,325.5424" style="stroke: #A80036; stroke-width: 1.0;"/><!--link Motorrad to Scheibenbremse--><path d="M1392,653.2879 C1392,675.417 1392,701.7821 1392,725.7649 " fill="none" id="Motorrad-Scheibenbremse" style="stroke: #A80036; stroke-width: 1.0;"/><polygon fill="#A80036" points="1392,640.1159,1388,646.1159,1392,652.1159,1396,646.1159,1392,640.1159" style="stroke: #A80036; stroke-width: 1.0;"/><!--link Motorrad to Trommelbremse--><path d="M1292.7579,645.1724 C1212.0539,679.4672 1099.4395,727.3221 1023.1131,759.7566 " fill="none" id="Motorrad-Trommelbremse" style="stroke: #A80036; stroke-width: 1.0;"/><polygon fill="#A80036" points="1304.9252,640.002,1297.8387,638.6673,1293.8811,644.6953,1300.9676,646.03,1304.9252,640.002" style="stroke: #A80036; stroke-width: 1.0;"/><!--
@startuml fahrzeuge

class Fahrzeug {
	-hersteller: String
	-modell: String
	-bremsen: Bremse[]

	+Fahrzeug(hersteller: String, modell: String, bremsen: Bremse[])
	+toString(): String
}

interface Bremse {
	+bremsen()
	+brauchtService(): boolean
}

Fahrzeug o- - - Bremse

class Cantileverbremse implements Bremse {
	-static final MAX_BELAG: int
	-static final MIN_BELAG: int

	-belagLinks: int
	-belagRechts: int

	+bremsen()
	+brauchtService(): boolean
}

class Scheibenbremse implements Bremse {
	-static final MAX_RIEFENTIEFE: int
	-static final MIN_BELAG: int
	-static final MAX_BELAG: int

	-riefentiefe: int
	-belag: int

	+bremsen()
	+brauchtService(): boolean
}

class Trommelbremse implements Bremse {
	-static final MIN_BELAG: int
	-static final MAX_BELAG: int

	-belag: int
	
	+bremsen()
	+brauchtService()
}


class Fahrrad extends Fahrzeug {
	-gaenge: int
	-ruecktrittbremse: int

	+Fahrrad(hersteller: String, modell: String, bremsen: Bremse[], gaenge: int, ruecktrittbremse: int)
	+toString(): String
}

Fahrrad *- - - Cantileverbremse

class Kraftfahrzeug extends Fahrzeug {
	-ps: int
	-hubraum: int
	-tankvolumen: int
	-zulGesamtGewicht: int

	+Kraftfahrzeug(hersteller: String, modell: String, bremsen: Bremse[], ps: int, hubraum: int, tankvolumen: int, zulGesamtGewicht: int)
	+toString(): String
}

class Auto extends Kraftfahrzeug {
	-sitze: int
	-tueren: int

	+Auto(hersteller: String, modell: String, bremsen: Bremse[], ps: int, hubraum: int, tankvolumen: int, zulGesamtGewicht: int, sitze: int, tueren: int)
	+toString(): String
}

Auto *- - - Scheibenbremse

class Lastwagen extends Kraftfahrzeug {
	-achsen: int
	-nutzlast: int

	+Lastwagen(hersteller: String, modell: String, bremsen: Bremse[], ps: int, hubraum: int, tankvolumen: int, zulGesamtGewicht: int, achsen: int, nutzlast: int)
	+toString(): String
	-static erstelleBremsen(n: int): Bremse[]
}

Lastwagen *- - - Trommelbremse

class Motorrad extends Kraftfahrzeug {
	+Motorrad(hersteller: String, modell: String, bremsen: Bremse[], ps: int, hubraum: int, tankvolumen: int)
	+toString: String
}

Motorrad *- - Scheibenbremse
Motorrad *- - Trommelbremse

@enduml

PlantUML version 1.2017.16(Sun Sep 03 12:53:37 CEST 2017)
(GPL source distribution)
Java Runtime: Java(TM) SE Runtime Environment
JVM: Java HotSpot(TM) 64-Bit Server VM
Java Version: 1.8.0_144-b01
Operating System: Mac OS X
OS Version: 10.13.4
Default Encoding: UTF-8
Language: en
Country: US
--></g></svg>