<?xml version="1.0" encoding="UTF-8" standalone="no"?><svg xmlns="http://www.w3.org/2000/svg" xmlns:xlink="http://www.w3.org/1999/xlink" contentScriptType="application/ecmascript" contentStyleType="text/css" height="875px" preserveAspectRatio="none" style="width:2785px;height:875px;" version="1.1" viewBox="0 0 2785 875" width="2785px" zoomAndPan="magnify"><defs><filter height="300%" id="f1n0ss64428wtd" width="300%" x="-1" y="-1"><feGaussianBlur result="blurOut" stdDeviation="2.0"/><feColorMatrix in="blurOut" result="blurOut2" type="matrix" values="0 0 0 0 0 0 0 0 0 0 0 0 0 0 0 0 0 0 .4 0"/><feOffset dx="4.0" dy="4.0" in="blurOut2" result="blurOut3"/><feBlend in="SourceGraphic" in2="blurOut3" mode="normal"/></filter></defs><g><!--class Fahrzeug--><rect fill="#FEFECE" filter="url(#f1n0ss64428wtd)" height="112.7754" id="Fahrzeug" style="stroke: #A80036; stroke-width: 1.5;" width="359" x="411.5" y="8"/><ellipse cx="560.25" cy="24" fill="#ADD1B2" rx="11" ry="11" style="stroke: #A80036; stroke-width: 1.0;"/><path d="M563.2231,29.6431 Q562.6421,29.9419 562.0029,30.0913 Q561.3638,30.2407 560.6582,30.2407 Q558.1514,30.2407 556.8315,28.5889 Q555.5117,26.937 555.5117,23.8159 Q555.5117,20.6865 556.8315,19.0347 Q558.1514,17.3828 560.6582,17.3828 Q561.3638,17.3828 562.0112,17.5322 Q562.6587,17.6816 563.2231,17.9805 L563.2231,20.7031 Q562.5923,20.1221 561.9988,19.8523 Q561.4053,19.5825 560.7744,19.5825 Q559.4297,19.5825 558.7449,20.6492 Q558.0601,21.7158 558.0601,23.8159 Q558.0601,25.9077 558.7449,26.9744 Q559.4297,28.041 560.7744,28.041 Q561.4053,28.041 561.9988,27.7712 Q562.5923,27.5015 563.2231,26.9204 Z "/><text fill="#000000" font-family="sans-serif" font-size="12" lengthAdjust="spacingAndGlyphs" textLength="53" x="580.75" y="28.5352">Fahrzeug</text><line style="stroke: #A80036; stroke-width: 1.5;" x1="412.5" x2="769.5" y1="40" y2="40"/><rect fill="none" height="6" style="stroke: #C82930; stroke-width: 1.0;" width="6" x="419.5" y="48.9775"/><text fill="#000000" font-family="sans-serif" font-size="11" lengthAdjust="spacingAndGlyphs" textLength="89" x="431.5" y="54.6348">hersteller: String</text><rect fill="none" height="6" style="stroke: #C82930; stroke-width: 1.0;" width="6" x="419.5" y="61.9326"/><text fill="#000000" font-family="sans-serif" font-size="11" lengthAdjust="spacingAndGlyphs" textLength="74" x="431.5" y="67.5898">modell: String</text><rect fill="none" height="6" style="stroke: #C82930; stroke-width: 1.0;" width="6" x="419.5" y="74.8877"/><text fill="#000000" font-family="sans-serif" font-size="11" lengthAdjust="spacingAndGlyphs" textLength="100" x="431.5" y="80.5449">bremsen: Bremse[]</text><line style="stroke: #A80036; stroke-width: 1.5;" x1="412.5" x2="769.5" y1="86.8652" y2="86.8652"/><ellipse cx="422.5" cy="98.8428" fill="#84BE84" rx="3" ry="3" style="stroke: #038048; stroke-width: 1.0;"/><text fill="#000000" font-family="sans-serif" font-size="11" lengthAdjust="spacingAndGlyphs" textLength="333" x="431.5" y="101.5">Fahrzeug(hersteller: String, modell: String, bremsen: Bremse[])</text><ellipse cx="422.5" cy="111.7979" fill="#84BE84" rx="3" ry="3" style="stroke: #038048; stroke-width: 1.0;"/><text fill="#000000" font-family="sans-serif" font-size="11" lengthAdjust="spacingAndGlyphs" textLength="89" x="431.5" y="114.4551">toString(): String</text><!--class Bremse--><rect fill="#FEFECE" filter="url(#f1n0ss64428wtd)" height="73.9102" id="Bremse" style="stroke: #A80036; stroke-width: 1.5;" width="163" x="325.5" y="386.5"/><ellipse cx="381.25" cy="402.5" fill="#B4A7E5" rx="11" ry="11" style="stroke: #A80036; stroke-width: 1.0;"/><path d="M377.1777,398.2651 L377.1777,396.1069 L384.5571,396.1069 L384.5571,398.2651 L382.0918,398.2651 L382.0918,406.3418 L384.5571,406.3418 L384.5571,408.5 L377.1777,408.5 L377.1777,406.3418 L379.6431,406.3418 L379.6431,398.2651 Z "/><text fill="#000000" font-family="sans-serif" font-size="12" font-style="italic" lengthAdjust="spacingAndGlyphs" textLength="43" x="401.75" y="407.0352">Bremse</text><line style="stroke: #A80036; stroke-width: 1.5;" x1="326.5" x2="487.5" y1="418.5" y2="418.5"/><line style="stroke: #A80036; stroke-width: 1.5;" x1="326.5" x2="487.5" y1="426.5" y2="426.5"/><ellipse cx="336.5" cy="438.4775" fill="#84BE84" rx="3" ry="3" style="stroke: #038048; stroke-width: 1.0;"/><text fill="#000000" font-family="sans-serif" font-size="11" lengthAdjust="spacingAndGlyphs" textLength="55" x="345.5" y="441.1348">bremsen()</text><ellipse cx="336.5" cy="451.4326" fill="#84BE84" rx="3" ry="3" style="stroke: #038048; stroke-width: 1.0;"/><text fill="#000000" font-family="sans-serif" font-size="11" lengthAdjust="spacingAndGlyphs" textLength="137" x="345.5" y="454.0898">brauchtService(): boolean</text><!--class Cantileverbremse--><rect fill="#FEFECE" filter="url(#f1n0ss64428wtd)" height="125.7305" id="Cantileverbremse" style="stroke: #A80036; stroke-width: 1.5;" width="168" x="215" y="540"/><ellipse cx="245.75" cy="556" fill="#ADD1B2" rx="11" ry="11" style="stroke: #A80036; stroke-width: 1.0;"/><path d="M248.7231,561.6431 Q248.1421,561.9419 247.5029,562.0913 Q246.8638,562.2407 246.1582,562.2407 Q243.6514,562.2407 242.3315,560.5889 Q241.0117,558.937 241.0117,555.8159 Q241.0117,552.6865 242.3315,551.0347 Q243.6514,549.3828 246.1582,549.3828 Q246.8638,549.3828 247.5112,549.5322 Q248.1587,549.6816 248.7231,549.9805 L248.7231,552.7031 Q248.0923,552.1221 247.4988,551.8523 Q246.9053,551.5825 246.2744,551.5825 Q244.9297,551.5825 244.2449,552.6492 Q243.5601,553.7158 243.5601,555.8159 Q243.5601,557.9077 244.2449,558.9744 Q244.9297,560.041 246.2744,560.041 Q246.9053,560.041 247.4988,559.7712 Q248.0923,559.5015 248.7231,558.9204 Z "/><text fill="#000000" font-family="sans-serif" font-size="12" lengthAdjust="spacingAndGlyphs" textLength="101" x="263.25" y="560.5352">Cantileverbremse</text><line style="stroke: #A80036; stroke-width: 1.5;" x1="216" x2="382" y1="572" y2="572"/><rect fill="none" height="6" style="stroke: #C82930; stroke-width: 1.0;" width="6" x="223" y="580.9775"/><text fill="#000000" font-family="sans-serif" font-size="11" lengthAdjust="spacingAndGlyphs" textLength="142" x="235" y="586.6348">static final MAX_BELAG: int</text><rect fill="none" height="6" style="stroke: #C82930; stroke-width: 1.0;" width="6" x="223" y="593.9326"/><text fill="#000000" font-family="sans-serif" font-size="11" lengthAdjust="spacingAndGlyphs" textLength="138" x="235" y="599.5898">static final MIN_BELAG: int</text><rect fill="none" height="6" style="stroke: #C82930; stroke-width: 1.0;" width="6" x="223" y="606.8877"/><text fill="#000000" font-family="sans-serif" font-size="11" lengthAdjust="spacingAndGlyphs" textLength="77" x="235" y="612.5449">belagLinks: int</text><rect fill="none" height="6" style="stroke: #C82930; stroke-width: 1.0;" width="6" x="223" y="619.8428"/><text fill="#000000" font-family="sans-serif" font-size="11" lengthAdjust="spacingAndGlyphs" textLength="85" x="235" y="625.5">belagRechts: int</text><line style="stroke: #A80036; stroke-width: 1.5;" x1="216" x2="382" y1="631.8203" y2="631.8203"/><ellipse cx="226" cy="643.7979" fill="#84BE84" rx="3" ry="3" style="stroke: #038048; stroke-width: 1.0;"/><text fill="#000000" font-family="sans-serif" font-size="11" lengthAdjust="spacingAndGlyphs" textLength="55" x="235" y="646.4551">bremsen()</text><ellipse cx="226" cy="656.7529" fill="#84BE84" rx="3" ry="3" style="stroke: #038048; stroke-width: 1.0;"/><text fill="#000000" font-family="sans-serif" font-size="11" lengthAdjust="spacingAndGlyphs" textLength="137" x="235" y="659.4102">brauchtService(): boolean</text><!--class Scheibenbremse--><rect fill="#FEFECE" filter="url(#f1n0ss64428wtd)" height="138.6855" id="Scheibenbremse" style="stroke: #A80036; stroke-width: 1.5;" width="198" x="458" y="726"/><ellipse cx="505.25" cy="742" fill="#ADD1B2" rx="11" ry="11" style="stroke: #A80036; stroke-width: 1.0;"/><path d="M508.2231,747.6431 Q507.6421,747.9419 507.0029,748.0913 Q506.3638,748.2407 505.6582,748.2407 Q503.1514,748.2407 501.8315,746.5889 Q500.5117,744.937 500.5117,741.8159 Q500.5117,738.6865 501.8315,737.0347 Q503.1514,735.3828 505.6582,735.3828 Q506.3638,735.3828 507.0112,735.5322 Q507.6587,735.6816 508.2231,735.9805 L508.2231,738.7031 Q507.5923,738.1221 506.9988,737.8523 Q506.4053,737.5825 505.7744,737.5825 Q504.4297,737.5825 503.7449,738.6492 Q503.0601,739.7158 503.0601,741.8159 Q503.0601,743.9077 503.7449,744.9744 Q504.4297,746.041 505.7744,746.041 Q506.4053,746.041 506.9988,745.7712 Q507.5923,745.5015 508.2231,744.9204 Z "/><text fill="#000000" font-family="sans-serif" font-size="12" lengthAdjust="spacingAndGlyphs" textLength="95" x="525.75" y="746.5352">Scheibenbremse</text><line style="stroke: #A80036; stroke-width: 1.5;" x1="459" x2="655" y1="758" y2="758"/><rect fill="none" height="6" style="stroke: #C82930; stroke-width: 1.0;" width="6" x="466" y="766.9775"/><text fill="#000000" font-family="sans-serif" font-size="11" lengthAdjust="spacingAndGlyphs" textLength="172" x="478" y="772.6348">static final MAX_RIEFENTIEFE: int</text><rect fill="none" height="6" style="stroke: #C82930; stroke-width: 1.0;" width="6" x="466" y="779.9326"/><text fill="#000000" font-family="sans-serif" font-size="11" lengthAdjust="spacingAndGlyphs" textLength="138" x="478" y="785.5898">static final MIN_BELAG: int</text><rect fill="none" height="6" style="stroke: #C82930; stroke-width: 1.0;" width="6" x="466" y="792.8877"/><text fill="#000000" font-family="sans-serif" font-size="11" lengthAdjust="spacingAndGlyphs" textLength="142" x="478" y="798.5449">static final MAX_BELAG: int</text><rect fill="none" height="6" style="stroke: #C82930; stroke-width: 1.0;" width="6" x="466" y="805.8428"/><text fill="#000000" font-family="sans-serif" font-size="11" lengthAdjust="spacingAndGlyphs" textLength="74" x="478" y="811.5">riefentiefe: int</text><rect fill="none" height="6" style="stroke: #C82930; stroke-width: 1.0;" width="6" x="466" y="818.7979"/><text fill="#000000" font-family="sans-serif" font-size="11" lengthAdjust="spacingAndGlyphs" textLength="49" x="478" y="824.4551">belag: int</text><line style="stroke: #A80036; stroke-width: 1.5;" x1="459" x2="655" y1="830.7754" y2="830.7754"/><ellipse cx="469" cy="842.7529" fill="#84BE84" rx="3" ry="3" style="stroke: #038048; stroke-width: 1.0;"/><text fill="#000000" font-family="sans-serif" font-size="11" lengthAdjust="spacingAndGlyphs" textLength="55" x="478" y="845.4102">bremsen()</text><ellipse cx="469" cy="855.708" fill="#84BE84" rx="3" ry="3" style="stroke: #038048; stroke-width: 1.0;"/><text fill="#000000" font-family="sans-serif" font-size="11" lengthAdjust="spacingAndGlyphs" textLength="137" x="478" y="858.3652">brauchtService(): boolean</text><!--class Trommelbremse--><rect fill="#FEFECE" filter="url(#f1n0ss64428wtd)" height="112.7754" id="Trommelbremse" style="stroke: #A80036; stroke-width: 1.5;" width="168" x="745" y="739"/><ellipse cx="778" cy="755" fill="#ADD1B2" rx="11" ry="11" style="stroke: #A80036; stroke-width: 1.0;"/><path d="M780.9731,760.6431 Q780.3921,760.9419 779.7529,761.0913 Q779.1138,761.2407 778.4082,761.2407 Q775.9014,761.2407 774.5815,759.5889 Q773.2617,757.937 773.2617,754.8159 Q773.2617,751.6865 774.5815,750.0347 Q775.9014,748.3828 778.4082,748.3828 Q779.1138,748.3828 779.7612,748.5322 Q780.4087,748.6816 780.9731,748.9805 L780.9731,751.7031 Q780.3423,751.1221 779.7488,750.8523 Q779.1553,750.5825 778.5244,750.5825 Q777.1797,750.5825 776.4949,751.6492 Q775.8101,752.7158 775.8101,754.8159 Q775.8101,756.9077 776.4949,757.9744 Q777.1797,759.041 778.5244,759.041 Q779.1553,759.041 779.7488,758.7712 Q780.3423,758.5015 780.9731,757.9204 Z "/><text fill="#000000" font-family="sans-serif" font-size="12" lengthAdjust="spacingAndGlyphs" textLength="96" x="796" y="759.5352">Trommelbremse</text><line style="stroke: #A80036; stroke-width: 1.5;" x1="746" x2="912" y1="771" y2="771"/><rect fill="none" height="6" style="stroke: #C82930; stroke-width: 1.0;" width="6" x="753" y="779.9775"/><text fill="#000000" font-family="sans-serif" font-size="11" lengthAdjust="spacingAndGlyphs" textLength="138" x="765" y="785.6348">static final MIN_BELAG: int</text><rect fill="none" height="6" style="stroke: #C82930; stroke-width: 1.0;" width="6" x="753" y="792.9326"/><text fill="#000000" font-family="sans-serif" font-size="11" lengthAdjust="spacingAndGlyphs" textLength="142" x="765" y="798.5898">static final MAX_BELAG: int</text><rect fill="none" height="6" style="stroke: #C82930; stroke-width: 1.0;" width="6" x="753" y="805.8877"/><text fill="#000000" font-family="sans-serif" font-size="11" lengthAdjust="spacingAndGlyphs" textLength="49" x="765" y="811.5449">belag: int</text><line style="stroke: #A80036; stroke-width: 1.5;" x1="746" x2="912" y1="817.8652" y2="817.8652"/><ellipse cx="756" cy="829.8428" fill="#84BE84" rx="3" ry="3" style="stroke: #038048; stroke-width: 1.0;"/><text fill="#000000" font-family="sans-serif" font-size="11" lengthAdjust="spacingAndGlyphs" textLength="55" x="765" y="832.5">bremsen()</text><ellipse cx="756" cy="842.7979" fill="#84BE84" rx="3" ry="3" style="stroke: #038048; stroke-width: 1.0;"/><text fill="#000000" font-family="sans-serif" font-size="11" lengthAdjust="spacingAndGlyphs" textLength="88" x="765" y="845.4551">brauchtService()</text><!--class Fahrrad--><rect fill="#FEFECE" filter="url(#f1n0ss64428wtd)" height="99.8203" id="Fahrrad" style="stroke: #A80036; stroke-width: 1.5;" width="532" x="6" y="194"/><ellipse cx="245.25" cy="210" fill="#ADD1B2" rx="11" ry="11" style="stroke: #A80036; stroke-width: 1.0;"/><path d="M248.2231,215.6431 Q247.6421,215.9419 247.0029,216.0913 Q246.3638,216.2407 245.6582,216.2407 Q243.1514,216.2407 241.8315,214.5889 Q240.5117,212.937 240.5117,209.8159 Q240.5117,206.6865 241.8315,205.0347 Q243.1514,203.3828 245.6582,203.3828 Q246.3638,203.3828 247.0112,203.5322 Q247.6587,203.6816 248.2231,203.9805 L248.2231,206.7031 Q247.5923,206.1221 246.9988,205.8523 Q246.4053,205.5825 245.7744,205.5825 Q244.4297,205.5825 243.7449,206.6492 Q243.0601,207.7158 243.0601,209.8159 Q243.0601,211.9077 243.7449,212.9744 Q244.4297,214.041 245.7744,214.041 Q246.4053,214.041 246.9988,213.7712 Q247.5923,213.5015 248.2231,212.9204 Z "/><text fill="#000000" font-family="sans-serif" font-size="12" lengthAdjust="spacingAndGlyphs" textLength="45" x="265.75" y="214.5352">Fahrrad</text><line style="stroke: #A80036; stroke-width: 1.5;" x1="7" x2="537" y1="226" y2="226"/><rect fill="none" height="6" style="stroke: #C82930; stroke-width: 1.0;" width="6" x="14" y="234.9775"/><text fill="#000000" font-family="sans-serif" font-size="11" lengthAdjust="spacingAndGlyphs" textLength="59" x="26" y="240.6348">gaenge: int</text><rect fill="none" height="6" style="stroke: #C82930; stroke-width: 1.0;" width="6" x="14" y="247.9326"/><text fill="#000000" font-family="sans-serif" font-size="11" lengthAdjust="spacingAndGlyphs" textLength="110" x="26" y="253.5898">ruecktrittbremse: int</text><line style="stroke: #A80036; stroke-width: 1.5;" x1="7" x2="537" y1="259.9102" y2="259.9102"/><ellipse cx="17" cy="271.8877" fill="#84BE84" rx="3" ry="3" style="stroke: #038048; stroke-width: 1.0;"/><text fill="#000000" font-family="sans-serif" font-size="11" lengthAdjust="spacingAndGlyphs" textLength="506" x="26" y="274.5449">Fahrrad(hersteller: String, modell: String, bremsen: Bremse[], gaenge: int, ruecktrittbremse: int)</text><ellipse cx="17" cy="284.8428" fill="#84BE84" rx="3" ry="3" style="stroke: #038048; stroke-width: 1.0;"/><text fill="#000000" font-family="sans-serif" font-size="11" lengthAdjust="spacingAndGlyphs" textLength="89" x="26" y="287.5">toString(): String</text><!--class Kraftfahrzeug--><rect fill="#FEFECE" filter="url(#f1n0ss64428wtd)" height="125.7305" id="Kraftfahrzeug" style="stroke: #A80036; stroke-width: 1.5;" width="716" x="1020" y="181"/><ellipse cx="1334.25" cy="197" fill="#ADD1B2" rx="11" ry="11" style="stroke: #A80036; stroke-width: 1.0;"/><path d="M1337.2231,202.6431 Q1336.6421,202.9419 1336.0029,203.0913 Q1335.3638,203.2407 1334.6582,203.2407 Q1332.1514,203.2407 1330.8315,201.5889 Q1329.5117,199.937 1329.5117,196.8159 Q1329.5117,193.6865 1330.8315,192.0347 Q1332.1514,190.3828 1334.6582,190.3828 Q1335.3638,190.3828 1336.0112,190.5322 Q1336.6587,190.6816 1337.2231,190.9805 L1337.2231,193.7031 Q1336.5923,193.1221 1335.9988,192.8523 Q1335.4053,192.5825 1334.7744,192.5825 Q1333.4297,192.5825 1332.7449,193.6492 Q1332.0601,194.7158 1332.0601,196.8159 Q1332.0601,198.9077 1332.7449,199.9744 Q1333.4297,201.041 1334.7744,201.041 Q1335.4053,201.041 1335.9988,200.7712 Q1336.5923,200.5015 1337.2231,199.9204 Z "/><text fill="#000000" font-family="sans-serif" font-size="12" lengthAdjust="spacingAndGlyphs" textLength="79" x="1354.75" y="201.5352">Kraftfahrzeug</text><line style="stroke: #A80036; stroke-width: 1.5;" x1="1021" x2="1735" y1="213" y2="213"/><rect fill="none" height="6" style="stroke: #C82930; stroke-width: 1.0;" width="6" x="1028" y="221.9775"/><text fill="#000000" font-family="sans-serif" font-size="11" lengthAdjust="spacingAndGlyphs" textLength="33" x="1040" y="227.6348">ps: int</text><rect fill="none" height="6" style="stroke: #C82930; stroke-width: 1.0;" width="6" x="1028" y="234.9326"/><text fill="#000000" font-family="sans-serif" font-size="11" lengthAdjust="spacingAndGlyphs" textLength="69" x="1040" y="240.5898">hubraum: int</text><rect fill="none" height="6" style="stroke: #C82930; stroke-width: 1.0;" width="6" x="1028" y="247.8877"/><text fill="#000000" font-family="sans-serif" font-size="11" lengthAdjust="spacingAndGlyphs" textLength="89" x="1040" y="253.5449">tankvolumen: int</text><rect fill="none" height="6" style="stroke: #C82930; stroke-width: 1.0;" width="6" x="1028" y="260.8428"/><text fill="#000000" font-family="sans-serif" font-size="11" lengthAdjust="spacingAndGlyphs" textLength="118" x="1040" y="266.5">zulGesamtGewicht: int</text><line style="stroke: #A80036; stroke-width: 1.5;" x1="1021" x2="1735" y1="272.8203" y2="272.8203"/><ellipse cx="1031" cy="284.7979" fill="#84BE84" rx="3" ry="3" style="stroke: #038048; stroke-width: 1.0;"/><text fill="#000000" font-family="sans-serif" font-size="11" lengthAdjust="spacingAndGlyphs" textLength="690" x="1040" y="287.4551">Kraftfahrzeug(hersteller: String, modell: String, bremsen: Bremse[], ps: int, hubraum: int, tankvolumen: int, zulGesamtGewicht: int)</text><ellipse cx="1031" cy="297.7529" fill="#84BE84" rx="3" ry="3" style="stroke: #038048; stroke-width: 1.0;"/><text fill="#000000" font-family="sans-serif" font-size="11" lengthAdjust="spacingAndGlyphs" textLength="89" x="1040" y="300.4102">toString(): String</text><!--class Auto--><rect fill="#FEFECE" filter="url(#f1n0ss64428wtd)" height="99.8203" id="Auto" style="stroke: #A80036; stroke-width: 1.5;" width="780" x="524" y="373.5"/><ellipse cx="896.75" cy="389.5" fill="#ADD1B2" rx="11" ry="11" style="stroke: #A80036; stroke-width: 1.0;"/><path d="M899.7231,395.1431 Q899.1421,395.4419 898.5029,395.5913 Q897.8638,395.7407 897.1582,395.7407 Q894.6514,395.7407 893.3315,394.0889 Q892.0117,392.437 892.0117,389.3159 Q892.0117,386.1865 893.3315,384.5347 Q894.6514,382.8828 897.1582,382.8828 Q897.8638,382.8828 898.5112,383.0322 Q899.1587,383.1816 899.7231,383.4805 L899.7231,386.2031 Q899.0923,385.6221 898.4988,385.3523 Q897.9053,385.0825 897.2744,385.0825 Q895.9297,385.0825 895.2449,386.1492 Q894.5601,387.2158 894.5601,389.3159 Q894.5601,391.4077 895.2449,392.4744 Q895.9297,393.541 897.2744,393.541 Q897.9053,393.541 898.4988,393.2712 Q899.0923,393.0015 899.7231,392.4204 Z "/><text fill="#000000" font-family="sans-serif" font-size="12" lengthAdjust="spacingAndGlyphs" textLength="26" x="917.25" y="394.0352">Auto</text><line style="stroke: #A80036; stroke-width: 1.5;" x1="525" x2="1303" y1="405.5" y2="405.5"/><rect fill="none" height="6" style="stroke: #C82930; stroke-width: 1.0;" width="6" x="532" y="414.4775"/><text fill="#000000" font-family="sans-serif" font-size="11" lengthAdjust="spacingAndGlyphs" textLength="45" x="544" y="420.1348">sitze: int</text><rect fill="none" height="6" style="stroke: #C82930; stroke-width: 1.0;" width="6" x="532" y="427.4326"/><text fill="#000000" font-family="sans-serif" font-size="11" lengthAdjust="spacingAndGlyphs" textLength="55" x="544" y="433.0898">tueren: int</text><line style="stroke: #A80036; stroke-width: 1.5;" x1="525" x2="1303" y1="439.4102" y2="439.4102"/><ellipse cx="535" cy="451.3877" fill="#84BE84" rx="3" ry="3" style="stroke: #038048; stroke-width: 1.0;"/><text fill="#000000" font-family="sans-serif" font-size="11" lengthAdjust="spacingAndGlyphs" textLength="754" x="544" y="454.0449">Auto(hersteller: String, modell: String, bremsen: Bremse[], ps: int, hubraum: int, tankvolumen: int, zulGesamtGewicht: int, sitze: int, tueren: int)</text><ellipse cx="535" cy="464.3428" fill="#84BE84" rx="3" ry="3" style="stroke: #038048; stroke-width: 1.0;"/><text fill="#000000" font-family="sans-serif" font-size="11" lengthAdjust="spacingAndGlyphs" textLength="89" x="544" y="467">toString(): String</text><!--class Lastwagen--><rect fill="#FEFECE" filter="url(#f1n0ss64428wtd)" height="112.7754" id="Lastwagen" style="stroke: #A80036; stroke-width: 1.5;" width="831" x="1339.5" y="367"/><ellipse cx="1720.75" cy="383" fill="#ADD1B2" rx="11" ry="11" style="stroke: #A80036; stroke-width: 1.0;"/><path d="M1723.7231,388.6431 Q1723.1421,388.9419 1722.5029,389.0913 Q1721.8638,389.2407 1721.1582,389.2407 Q1718.6514,389.2407 1717.3315,387.5889 Q1716.0117,385.937 1716.0117,382.8159 Q1716.0117,379.6865 1717.3315,378.0347 Q1718.6514,376.3828 1721.1582,376.3828 Q1721.8638,376.3828 1722.5112,376.5322 Q1723.1587,376.6816 1723.7231,376.9805 L1723.7231,379.7031 Q1723.0923,379.1221 1722.4988,378.8523 Q1721.9053,378.5825 1721.2744,378.5825 Q1719.9297,378.5825 1719.2449,379.6492 Q1718.5601,380.7158 1718.5601,382.8159 Q1718.5601,384.9077 1719.2449,385.9744 Q1719.9297,387.041 1721.2744,387.041 Q1721.9053,387.041 1722.4988,386.7712 Q1723.0923,386.5015 1723.7231,385.9204 Z "/><text fill="#000000" font-family="sans-serif" font-size="12" lengthAdjust="spacingAndGlyphs" textLength="60" x="1741.25" y="387.5352">Lastwagen</text><line style="stroke: #A80036; stroke-width: 1.5;" x1="1340.5" x2="2169.5" y1="399" y2="399"/><rect fill="none" height="6" style="stroke: #C82930; stroke-width: 1.0;" width="6" x="1347.5" y="407.9775"/><text fill="#000000" font-family="sans-serif" font-size="11" lengthAdjust="spacingAndGlyphs" textLength="58" x="1359.5" y="413.6348">achsen: int</text><rect fill="none" height="6" style="stroke: #C82930; stroke-width: 1.0;" width="6" x="1347.5" y="420.9326"/><text fill="#000000" font-family="sans-serif" font-size="11" lengthAdjust="spacingAndGlyphs" textLength="63" x="1359.5" y="426.5898">nutzlast: int</text><line style="stroke: #A80036; stroke-width: 1.5;" x1="1340.5" x2="2169.5" y1="432.9102" y2="432.9102"/><ellipse cx="1350.5" cy="444.8877" fill="#84BE84" rx="3" ry="3" style="stroke: #038048; stroke-width: 1.0;"/><text fill="#000000" font-family="sans-serif" font-size="11" lengthAdjust="spacingAndGlyphs" textLength="805" x="1359.5" y="447.5449">Lastwagen(hersteller: String, modell: String, bremsen: Bremse[], ps: int, hubraum: int, tankvolumen: int, zulGesamtGewicht: int, achsen: int, nutzlast: int)</text><ellipse cx="1350.5" cy="457.8428" fill="#84BE84" rx="3" ry="3" style="stroke: #038048; stroke-width: 1.0;"/><text fill="#000000" font-family="sans-serif" font-size="11" lengthAdjust="spacingAndGlyphs" textLength="89" x="1359.5" y="460.5">toString(): String</text><rect fill="#F24D5C" height="6" style="stroke: #C82930; stroke-width: 1.0;" width="6" x="1347.5" y="467.7979"/><text fill="#000000" font-family="sans-serif" font-size="11" lengthAdjust="spacingAndGlyphs" textLength="205" x="1359.5" y="473.4551">static erstelleBremsen(n: int): Bremse[]</text><!--class Motorrad--><rect fill="#FEFECE" filter="url(#f1n0ss64428wtd)" height="73.9102" id="Motorrad" style="stroke: #A80036; stroke-width: 1.5;" width="568" x="2206" y="386.5"/><ellipse cx="2459.25" cy="402.5" fill="#ADD1B2" rx="11" ry="11" style="stroke: #A80036; stroke-width: 1.0;"/><path d="M2462.2231,408.1431 Q2461.6421,408.4419 2461.0029,408.5913 Q2460.3638,408.7407 2459.6582,408.7407 Q2457.1514,408.7407 2455.8315,407.0889 Q2454.5117,405.437 2454.5117,402.3159 Q2454.5117,399.1865 2455.8315,397.5347 Q2457.1514,395.8828 2459.6582,395.8828 Q2460.3638,395.8828 2461.0112,396.0322 Q2461.6587,396.1816 2462.2231,396.4805 L2462.2231,399.2031 Q2461.5923,398.6221 2460.9988,398.3523 Q2460.4053,398.0825 2459.7744,398.0825 Q2458.4297,398.0825 2457.7449,399.1492 Q2457.0601,400.2158 2457.0601,402.3159 Q2457.0601,404.4077 2457.7449,405.4744 Q2458.4297,406.541 2459.7744,406.541 Q2460.4053,406.541 2460.9988,406.2712 Q2461.5923,406.0015 2462.2231,405.4204 Z "/><text fill="#000000" font-family="sans-serif" font-size="12" lengthAdjust="spacingAndGlyphs" textLength="53" x="2479.75" y="407.0352">Motorrad</text><line style="stroke: #A80036; stroke-width: 1.5;" x1="2207" x2="2773" y1="418.5" y2="418.5"/><ellipse cx="2217" cy="430.4775" fill="none" rx="3" ry="3" style="stroke: #038048; stroke-width: 1.0;"/><text fill="#000000" font-family="sans-serif" font-size="11" lengthAdjust="spacingAndGlyphs" textLength="81" x="2226" y="433.1348">toString: String</text><line style="stroke: #A80036; stroke-width: 1.5;" x1="2207" x2="2773" y1="439.4551" y2="439.4551"/><ellipse cx="2217" cy="451.4326" fill="#84BE84" rx="3" ry="3" style="stroke: #038048; stroke-width: 1.0;"/><text fill="#000000" font-family="sans-serif" font-size="11" lengthAdjust="spacingAndGlyphs" textLength="542" x="2226" y="454.0898">Motorrad(hersteller: String, modell: String, bremsen: Bremse[], ps: int, hubraum: int, tankvolumen: int)</text><!--link Fahrzeug to Bremse--><path d="M593.9924,134.2819 C593.142,185.3277 585.4365,254.5318 555,307 C536.0486,339.6695 504.0716,366.5741 474.6802,386.2658 " fill="none" id="Fahrzeug-Bremse" style="stroke: #A80036; stroke-width: 1.0;"/><polygon fill="#FFFFFF" points="594.0675,121.0572,590.0334,127.0343,593.9992,133.057,598.0333,127.0799,594.0675,121.0572" style="stroke: #A80036; stroke-width: 1.0;"/><!--link Bremse to Cantileverbremse--><path d="M374.1857,478.0386 C362.4813,497.4918 349.1988,519.5678 337.0886,539.6953 " fill="none" id="Bremse-Cantileverbremse" style="stroke: #A80036; stroke-width: 1.0; stroke-dasharray: 7.0,7.0;"/><polygon fill="none" points="368.3133,474.2209,384.6223,460.6925,380.3093,481.4386,368.3133,474.2209" style="stroke: #A80036; stroke-width: 1.0;"/><!--link Bremse to Scheibenbremse--><path d="M429.5694,479.4721 C456.1132,545.3007 500.19,654.6112 528.9182,725.857 " fill="none" id="Bremse-Scheibenbremse" style="stroke: #A80036; stroke-width: 1.0; stroke-dasharray: 7.0,7.0;"/><polygon fill="none" points="422.9183,481.6954,421.931,460.5288,435.9025,476.4598,422.9183,481.6954" style="stroke: #A80036; stroke-width: 1.0;"/><!--link Bremse to Trommelbremse--><path d="M464.2745,473.9885 C542.5979,543.0318 682.7165,666.5487 764.5988,738.7293 " fill="none" id="Bremse-Trommelbremse" style="stroke: #A80036; stroke-width: 1.0; stroke-dasharray: 7.0,7.0;"/><polygon fill="none" points="459.3799,479.0053,449.0058,460.5288,468.6377,468.5031,459.3799,479.0053" style="stroke: #A80036; stroke-width: 1.0;"/><!--link Fahrzeug to Fahrrad--><path d="M472.8977,130.9557 C435.8535,151.8003 395.6086,174.4459 360.9359,193.9561 " fill="none" id="Fahrzeug-Fahrrad" style="stroke: #A80036; stroke-width: 1.0;"/><polygon fill="none" points="469.6414,124.7559,490.5043,121.0485,476.5069,136.9569,469.6414,124.7559" style="stroke: #A80036; stroke-width: 1.0;"/><!--link Fahrrad to Cantileverbremse--><path d="M276.7594,307.2827 C281.6813,372.7252 289.3221,474.3193 294.243,539.7498 " fill="none" id="Fahrrad-Cantileverbremse" style="stroke: #A80036; stroke-width: 1.0;"/><polygon fill="#A80036" points="275.7827,294.2954,272.244,300.5785,276.6828,306.2616,280.2215,299.9785,275.7827,294.2954" style="stroke: #A80036; stroke-width: 1.0;"/><!--link Fahrzeug to Kraftfahrzeug--><path d="M790.0945,109.9097 C884.5159,131.4455 998.8818,157.5302 1101.5518,180.9473 " fill="none" id="Fahrzeug-Kraftfahrzeug" style="stroke: #A80036; stroke-width: 1.0;"/><polygon fill="none" points="788.5099,116.7282,770.5672,105.4559,791.6231,103.0787,788.5099,116.7282" style="stroke: #A80036; stroke-width: 1.0;"/><!--link Kraftfahrzeug to Auto--><path d="M1196.4044,314.2509 C1145.284,334.027 1090.7329,355.1303 1043.3408,373.4641 " fill="none" id="Kraftfahrzeug-Auto" style="stroke: #A80036; stroke-width: 1.0;"/><polygon fill="none" points="1193.8849,307.7201,1215.0634,307.0326,1198.9361,320.7771,1193.8849,307.7201" style="stroke: #A80036; stroke-width: 1.0;"/><!--link Auto to Scheibenbremse--><path d="M856.7752,483.1292 C793.2753,549.2972 690.93,655.9427 623.8086,725.8843 " fill="none" id="Auto-Scheibenbremse" style="stroke: #A80036; stroke-width: 1.0;"/><polygon fill="#A80036" points="865.8534,473.6696,858.8129,475.229,857.5445,482.3277,864.585,480.7683,865.8534,473.6696" style="stroke: #A80036; stroke-width: 1.0;"/><!--link Kraftfahrzeug to Lastwagen--><path d="M1528.849,315.8233 C1564.5373,332.8155 1602.1026,350.7014 1636.1424,366.9086 " fill="none" id="Kraftfahrzeug-Lastwagen" style="stroke: #A80036; stroke-width: 1.0;"/><polygon fill="none" points="1525.4344,321.9506,1510.386,307.0326,1531.4529,309.3102,1525.4344,321.9506" style="stroke: #A80036; stroke-width: 1.0;"/><!--link Lastwagen to Trommelbremse--><path d="M1601.909,485.0009 C1404.7306,564.213 1068.9039,699.1239 913.0554,761.7326 " fill="none" id="Lastwagen-Trommelbremse" style="stroke: #A80036; stroke-width: 1.0;"/><polygon fill="#A80036" points="1614.1088,480.0999,1607.0502,478.6249,1602.9738,484.5732,1610.0324,486.0483,1614.1088,480.0999" style="stroke: #A80036; stroke-width: 1.0;"/><!--link Kraftfahrzeug to Motorrad--><path d="M1756.0105,298.6602 C1892.3276,319.0953 2047.234,343.1517 2188,367 C2223.4988,373.0141 2261.2734,379.7848 2297.6558,386.4949 " fill="none" id="Kraftfahrzeug-Motorrad" style="stroke: #A80036; stroke-width: 1.0;"/><polygon fill="none" points="1754.781,305.5543,1736.0369,295.672,1756.8526,291.7084,1754.781,305.5543" style="stroke: #A80036; stroke-width: 1.0;"/><!--
@startuml fahrzeuge

class Fahrzeug {
	-hersteller: String
	-modell: String
	-bremsen: Bremse[]

	+Fahrzeug(hersteller: String, modell: String, bremsen: Bremse[])
	+toString(): String
}

interface Bremse {
	+bremsen()
	+brauchtService(): boolean
}

Fahrzeug o- - - Bremse

class Cantileverbremse implements Bremse {
	-static final MAX_BELAG: int
	-static final MIN_BELAG: int

	-belagLinks: int
	-belagRechts: int

	+bremsen()
	+brauchtService(): boolean
}

class Scheibenbremse implements Bremse {
	-static final MAX_RIEFENTIEFE: int
	-static final MIN_BELAG: int
	-static final MAX_BELAG: int

	-riefentiefe: int
	-belag: int

	+bremsen()
	+brauchtService(): boolean
}

class Trommelbremse implements Bremse {
	-static final MIN_BELAG: int
	-static final MAX_BELAG: int

	-belag: int
	
	+bremsen()
	+brauchtService()
}


class Fahrrad extends Fahrzeug {
	-gaenge: int
	-ruecktrittbremse: int

	+Fahrrad(hersteller: String, modell: String, bremsen: Bremse[], gaenge: int, ruecktrittbremse: int)
	+toString(): String
}

Fahrrad *- - - Cantileverbremse

class Kraftfahrzeug extends Fahrzeug {
	-ps: int
	-hubraum: int
	-tankvolumen: int
	-zulGesamtGewicht: int

	+Kraftfahrzeug(hersteller: String, modell: String, bremsen: Bremse[], ps: int, hubraum: int, tankvolumen: int, zulGesamtGewicht: int)
	+toString(): String
}

class Auto extends Kraftfahrzeug {
	-sitze: int
	-tueren: int

	+Auto(hersteller: String, modell: String, bremsen: Bremse[], ps: int, hubraum: int, tankvolumen: int, zulGesamtGewicht: int, sitze: int, tueren: int)
	+toString(): String
}

Auto *- - - Scheibenbremse

class Lastwagen extends Kraftfahrzeug {
	-achsen: int
	-nutzlast: int

	+Lastwagen(hersteller: String, modell: String, bremsen: Bremse[], ps: int, hubraum: int, tankvolumen: int, zulGesamtGewicht: int, achsen: int, nutzlast: int)
	+toString(): String
	-static erstelleBremsen(n: int): Bremse[]
}

Lastwagen *- - - Trommelbremse

class Motorrad extends Kraftfahrzeug {
	+Motorrad(hersteller: String, modell: String, bremsen: Bremse[], ps: int, hubraum: int, tankvolumen: int)
	+toString: String
}


@enduml

PlantUML version 1.2017.16(Sun Sep 03 12:53:37 CEST 2017)
(GPL source distribution)
Java Runtime: Java(TM) SE Runtime Environment
JVM: Java HotSpot(TM) 64-Bit Server VM
Java Version: 1.8.0_144-b01
Operating System: Mac OS X
OS Version: 10.13.4
Default Encoding: UTF-8
Language: en
Country: US
--></g></svg>