<?xml version="1.0" encoding="UTF-8" standalone="no"?><svg xmlns="http://www.w3.org/2000/svg" xmlns:xlink="http://www.w3.org/1999/xlink" contentScriptType="application/ecmascript" contentStyleType="text/css" height="317px" preserveAspectRatio="none" style="width:750px;height:317px;" version="1.1" viewBox="0 0 750 317" width="750px" zoomAndPan="magnify"><defs><filter height="300%" id="f1u3u1jkmqjq38" width="300%" x="-1" y="-1"><feGaussianBlur result="blurOut" stdDeviation="2.0"/><feColorMatrix in="blurOut" result="blurOut2" type="matrix" values="0 0 0 0 0 0 0 0 0 0 0 0 0 0 0 0 0 0 .4 0"/><feOffset dx="4.0" dy="4.0" in="blurOut2" result="blurOut3"/><feBlend in="SourceGraphic" in2="blurOut3" mode="normal"/></filter></defs><g><!--class Form--><rect fill="#FEFECE" filter="url(#f1u3u1jkmqjq38)" height="112.7754" id="Form" style="stroke: #A80036; stroke-width: 1.5;" width="121" x="361" y="8"/><ellipse cx="403" cy="24" fill="#ADD1B2" rx="11" ry="11" style="stroke: #A80036; stroke-width: 1.0;"/><path d="M405.9731,29.6431 Q405.3921,29.9419 404.7529,30.0913 Q404.1138,30.2407 403.4082,30.2407 Q400.9014,30.2407 399.5815,28.5889 Q398.2617,26.937 398.2617,23.8159 Q398.2617,20.6865 399.5815,19.0347 Q400.9014,17.3828 403.4082,17.3828 Q404.1138,17.3828 404.7612,17.5322 Q405.4087,17.6816 405.9731,17.9805 L405.9731,20.7031 Q405.3423,20.1221 404.7488,19.8523 Q404.1553,19.5825 403.5244,19.5825 Q402.1797,19.5825 401.4949,20.6492 Q400.8101,21.7158 400.8101,23.8159 Q400.8101,25.9077 401.4949,26.9744 Q402.1797,28.041 403.5244,28.041 Q404.1553,28.041 404.7488,27.7712 Q405.3423,27.5015 405.9731,26.9204 Z "/><text fill="#000000" font-family="sans-serif" font-size="12" lengthAdjust="spacingAndGlyphs" textLength="29" x="423" y="28.5352">Form</text><line style="stroke: #A80036; stroke-width: 1.5;" x1="362" x2="481" y1="40" y2="40"/><rect fill="none" height="6" style="stroke: #C82930; stroke-width: 1.0;" width="6" x="369" y="48.9775"/><text fill="#000000" font-family="sans-serif" font-size="11" lengthAdjust="spacingAndGlyphs" textLength="27" x="381" y="54.6348">x: int</text><rect fill="none" height="6" style="stroke: #C82930; stroke-width: 1.0;" width="6" x="369" y="61.9326"/><text fill="#000000" font-family="sans-serif" font-size="11" lengthAdjust="spacingAndGlyphs" textLength="26" x="381" y="67.5898">y: int</text><line style="stroke: #A80036; stroke-width: 1.5;" x1="362" x2="481" y1="73.9102" y2="73.9102"/><ellipse cx="372" cy="85.8877" fill="#84BE84" rx="3" ry="3" style="stroke: #038048; stroke-width: 1.0;"/><text fill="#000000" font-family="sans-serif" font-size="11" lengthAdjust="spacingAndGlyphs" textLength="95" x="381" y="88.5449">Form(x: int, y: int)</text><ellipse cx="372" cy="98.8428" fill="#84BE84" rx="3" ry="3" style="stroke: #038048; stroke-width: 1.0;"/><text fill="#000000" font-family="sans-serif" font-size="11" lengthAdjust="spacingAndGlyphs" textLength="52" x="381" y="101.5">getX(): int</text><ellipse cx="372" cy="111.7979" fill="#84BE84" rx="3" ry="3" style="stroke: #038048; stroke-width: 1.0;"/><text fill="#000000" font-family="sans-serif" font-size="11" lengthAdjust="spacingAndGlyphs" textLength="52" x="381" y="114.4551">getY(): int</text><!--class Dreieck--><rect fill="#FEFECE" filter="url(#f1u3u1jkmqjq38)" height="125.7305" id="Dreieck" style="stroke: #A80036; stroke-width: 1.5;" width="305" x="6" y="181"/><ellipse cx="132.25" cy="197" fill="#ADD1B2" rx="11" ry="11" style="stroke: #A80036; stroke-width: 1.0;"/><path d="M135.2231,202.6431 Q134.6421,202.9419 134.0029,203.0913 Q133.3638,203.2407 132.6582,203.2407 Q130.1514,203.2407 128.8315,201.5889 Q127.5117,199.937 127.5117,196.8159 Q127.5117,193.6865 128.8315,192.0347 Q130.1514,190.3828 132.6582,190.3828 Q133.3638,190.3828 134.0112,190.5322 Q134.6587,190.6816 135.2231,190.9805 L135.2231,193.7031 Q134.5923,193.1221 133.9988,192.8523 Q133.4053,192.5825 132.7744,192.5825 Q131.4297,192.5825 130.7449,193.6492 Q130.0601,194.7158 130.0601,196.8159 Q130.0601,198.9077 130.7449,199.9744 Q131.4297,201.041 132.7744,201.041 Q133.4053,201.041 133.9988,200.7712 Q134.5923,200.5015 135.2231,199.9204 Z "/><text fill="#000000" font-family="sans-serif" font-size="12" lengthAdjust="spacingAndGlyphs" textLength="44" x="152.75" y="201.5352">Dreieck</text><line style="stroke: #A80036; stroke-width: 1.5;" x1="7" x2="310" y1="213" y2="213"/><rect fill="none" height="6" style="stroke: #C82930; stroke-width: 1.0;" width="6" x="14" y="221.9775"/><text fill="#000000" font-family="sans-serif" font-size="11" lengthAdjust="spacingAndGlyphs" textLength="34" x="26" y="227.6348">x1: int</text><rect fill="none" height="6" style="stroke: #C82930; stroke-width: 1.0;" width="6" x="14" y="234.9326"/><text fill="#000000" font-family="sans-serif" font-size="11" lengthAdjust="spacingAndGlyphs" textLength="34" x="26" y="240.5898">x2: int</text><rect fill="none" height="6" style="stroke: #C82930; stroke-width: 1.0;" width="6" x="14" y="247.8877"/><text fill="#000000" font-family="sans-serif" font-size="11" lengthAdjust="spacingAndGlyphs" textLength="33" x="26" y="253.5449">y1: int</text><rect fill="none" height="6" style="stroke: #C82930; stroke-width: 1.0;" width="6" x="14" y="260.8428"/><text fill="#000000" font-family="sans-serif" font-size="11" lengthAdjust="spacingAndGlyphs" textLength="33" x="26" y="266.5">y2: int</text><line style="stroke: #A80036; stroke-width: 1.5;" x1="7" x2="310" y1="272.8203" y2="272.8203"/><ellipse cx="17" cy="284.7979" fill="#84BE84" rx="3" ry="3" style="stroke: #038048; stroke-width: 1.0;"/><text fill="#000000" font-family="sans-serif" font-size="11" lengthAdjust="spacingAndGlyphs" textLength="279" x="26" y="287.4551">Dreieck(x0: int, y0: int, x1: int, y1: int, x2: int, y2: int)</text><ellipse cx="17" cy="297.7529" fill="#84BE84" rx="3" ry="3" style="stroke: #038048; stroke-width: 1.0;"/><text fill="#000000" font-family="sans-serif" font-size="11" lengthAdjust="spacingAndGlyphs" textLength="89" x="26" y="300.4102">toString(): String</text><!--class Kreis--><rect fill="#FEFECE" filter="url(#f1u3u1jkmqjq38)" height="86.8652" id="Kreis" style="stroke: #A80036; stroke-width: 1.5;" width="151" x="346" y="200.5"/><ellipse cx="402.75" cy="216.5" fill="#ADD1B2" rx="11" ry="11" style="stroke: #A80036; stroke-width: 1.0;"/><path d="M405.7231,222.1431 Q405.1421,222.4419 404.5029,222.5913 Q403.8638,222.7407 403.1582,222.7407 Q400.6514,222.7407 399.3315,221.0889 Q398.0117,219.437 398.0117,216.3159 Q398.0117,213.1865 399.3315,211.5347 Q400.6514,209.8828 403.1582,209.8828 Q403.8638,209.8828 404.5112,210.0322 Q405.1587,210.1816 405.7231,210.4805 L405.7231,213.2031 Q405.0923,212.6221 404.4988,212.3523 Q403.9053,212.0825 403.2744,212.0825 Q401.9297,212.0825 401.2449,213.1492 Q400.5601,214.2158 400.5601,216.3159 Q400.5601,218.4077 401.2449,219.4744 Q401.9297,220.541 403.2744,220.541 Q403.9053,220.541 404.4988,220.2712 Q405.0923,220.0015 405.7231,219.4204 Z "/><text fill="#000000" font-family="sans-serif" font-size="12" lengthAdjust="spacingAndGlyphs" textLength="29" x="423.25" y="221.0352">Kreis</text><line style="stroke: #A80036; stroke-width: 1.5;" x1="347" x2="496" y1="232.5" y2="232.5"/><rect fill="none" height="6" style="stroke: #C82930; stroke-width: 1.0;" width="6" x="354" y="241.4775"/><text fill="#000000" font-family="sans-serif" font-size="11" lengthAdjust="spacingAndGlyphs" textLength="54" x="366" y="247.1348">radius: int</text><line style="stroke: #A80036; stroke-width: 1.5;" x1="347" x2="496" y1="253.4551" y2="253.4551"/><ellipse cx="357" cy="265.4326" fill="#84BE84" rx="3" ry="3" style="stroke: #038048; stroke-width: 1.0;"/><text fill="#000000" font-family="sans-serif" font-size="11" lengthAdjust="spacingAndGlyphs" textLength="125" x="366" y="268.0898">Kreis(x: int, y: int, r: int)</text><ellipse cx="357" cy="278.3877" fill="#84BE84" rx="3" ry="3" style="stroke: #038048; stroke-width: 1.0;"/><text fill="#000000" font-family="sans-serif" font-size="11" lengthAdjust="spacingAndGlyphs" textLength="89" x="366" y="281.0449">toString(): String</text><!--class Rechteck--><rect fill="#FEFECE" filter="url(#f1u3u1jkmqjq38)" height="99.8203" id="Rechteck" style="stroke: #A80036; stroke-width: 1.5;" width="207" x="532" y="194"/><ellipse cx="605.25" cy="210" fill="#ADD1B2" rx="11" ry="11" style="stroke: #A80036; stroke-width: 1.0;"/><path d="M608.2231,215.6431 Q607.6421,215.9419 607.0029,216.0913 Q606.3638,216.2407 605.6582,216.2407 Q603.1514,216.2407 601.8315,214.5889 Q600.5117,212.937 600.5117,209.8159 Q600.5117,206.6865 601.8315,205.0347 Q603.1514,203.3828 605.6582,203.3828 Q606.3638,203.3828 607.0112,203.5322 Q607.6587,203.6816 608.2231,203.9805 L608.2231,206.7031 Q607.5923,206.1221 606.9988,205.8523 Q606.4053,205.5825 605.7744,205.5825 Q604.4297,205.5825 603.7449,206.6492 Q603.0601,207.7158 603.0601,209.8159 Q603.0601,211.9077 603.7449,212.9744 Q604.4297,214.041 605.7744,214.041 Q606.4053,214.041 606.9988,213.7712 Q607.5923,213.5015 608.2231,212.9204 Z "/><text fill="#000000" font-family="sans-serif" font-size="12" lengthAdjust="spacingAndGlyphs" textLength="52" x="625.75" y="214.5352">Rechteck</text><line style="stroke: #A80036; stroke-width: 1.5;" x1="533" x2="738" y1="226" y2="226"/><rect fill="none" height="6" style="stroke: #C82930; stroke-width: 1.0;" width="6" x="540" y="234.9775"/><text fill="#000000" font-family="sans-serif" font-size="11" lengthAdjust="spacingAndGlyphs" textLength="51" x="552" y="240.6348">breite: int</text><rect fill="none" height="6" style="stroke: #C82930; stroke-width: 1.0;" width="6" x="540" y="247.9326"/><text fill="#000000" font-family="sans-serif" font-size="11" lengthAdjust="spacingAndGlyphs" textLength="53" x="552" y="253.5898">hoehe: int</text><line style="stroke: #A80036; stroke-width: 1.5;" x1="533" x2="738" y1="259.9102" y2="259.9102"/><ellipse cx="543" cy="271.8877" fill="#84BE84" rx="3" ry="3" style="stroke: #038048; stroke-width: 1.0;"/><text fill="#000000" font-family="sans-serif" font-size="11" lengthAdjust="spacingAndGlyphs" textLength="181" x="552" y="274.5449">Rechteck(x: int, y: int, b: int, h: int)</text><ellipse cx="543" cy="284.8428" fill="#84BE84" rx="3" ry="3" style="stroke: #038048; stroke-width: 1.0;"/><text fill="#000000" font-family="sans-serif" font-size="11" lengthAdjust="spacingAndGlyphs" textLength="89" x="552" y="287.5">toString(): String</text><!--link Form to Dreieck--><path d="M344.1664,117.2809 C314.915,137.2453 281.3305,160.167 250.8375,180.9787 " fill="none" id="Form-Dreieck" style="stroke: #A80036; stroke-width: 1.0;"/><polygon fill="none" points="340.3669,111.3991,360.8323,105.9063,348.2591,122.9626,340.3669,111.3991" style="stroke: #A80036; stroke-width: 1.0;"/><!--link Form to Kreis--><path d="M421.5,141.4127 C421.5,161.5799 421.5,182.6301 421.5,200.3762 " fill="none" id="Form-Kreis" style="stroke: #A80036; stroke-width: 1.0;"/><polygon fill="none" points="414.5001,141.295,421.5,121.2949,428.5001,141.2949,414.5001,141.295" style="stroke: #A80036; stroke-width: 1.0;"/><!--link Form to Rechteck--><path d="M497.8005,128.4997 C523.3992,149.9716 551.5591,173.5916 575.7068,193.8464 " fill="none" id="Form-Rechteck" style="stroke: #A80036; stroke-width: 1.0;"/><polygon fill="none" points="493.0761,133.6735,482.2514,115.4574,502.0732,122.9472,493.0761,133.6735" style="stroke: #A80036; stroke-width: 1.0;"/><!--
@startuml formen

class Form {
	-x: int
	-y: int

	+Form(x: int, y: int)
	+getX(): int
	+getY(): int
}

class Dreieck extends Form {
	-x1: int
	-x2: int
	-y1: int
	-y2: int

	+Dreieck(x0: int, y0: int, x1: int, y1: int, x2: int, y2: int)
	+toString(): String
}

class Kreis extends Form {
	-radius: int

	+Kreis(x: int, y: int, r: int)
	+toString(): String
}

class Rechteck extends Form {
	-breite: int
	-hoehe: int	

	+Rechteck(x: int, y: int, b: int, h: int)
	+toString(): String
}

@enduml

PlantUML version 1.2017.16(Sun Sep 03 12:53:37 CEST 2017)
(GPL source distribution)
Java Runtime: Java(TM) SE Runtime Environment
JVM: Java HotSpot(TM) 64-Bit Server VM
Java Version: 1.8.0_144-b01
Operating System: Mac OS X
OS Version: 10.13.4
Default Encoding: UTF-8
Language: en
Country: US
--></g></svg>