<?xml version="1.0" encoding="UTF-8" standalone="no"?><svg xmlns="http://www.w3.org/2000/svg" xmlns:xlink="http://www.w3.org/1999/xlink" contentScriptType="application/ecmascript" contentStyleType="text/css" height="317px" preserveAspectRatio="none" style="width:750px;height:317px;" version="1.1" viewBox="0 0 750 317" width="750px" zoomAndPan="magnify"><defs><filter height="300%" id="f126trzc9q4k3q" width="300%" x="-1" y="-1"><feGaussianBlur result="blurOut" stdDeviation="2.0"/><feColorMatrix in="blurOut" result="blurOut2" type="matrix" values="0 0 0 0 0 0 0 0 0 0 0 0 0 0 0 0 0 0 .4 0"/><feOffset dx="4.0" dy="4.0" in="blurOut2" result="blurOut3"/><feBlend in="SourceGraphic" in2="blurOut3" mode="normal"/></filter></defs><g><!--class Form--><rect fill="#FEFECE" filter="url(#f126trzc9q4k3q)" height="112.7754" id="Form" style="stroke: #A80036; stroke-width: 1.5;" width="121" x="128" y="8"/><ellipse cx="170" cy="24" fill="#ADD1B2" rx="11" ry="11" style="stroke: #A80036; stroke-width: 1.0;"/><path d="M172.9731,29.6431 Q172.3921,29.9419 171.7529,30.0913 Q171.1138,30.2407 170.4082,30.2407 Q167.9014,30.2407 166.5815,28.5889 Q165.2617,26.937 165.2617,23.8159 Q165.2617,20.6865 166.5815,19.0347 Q167.9014,17.3828 170.4082,17.3828 Q171.1138,17.3828 171.7612,17.5322 Q172.4087,17.6816 172.9731,17.9805 L172.9731,20.7031 Q172.3423,20.1221 171.7488,19.8523 Q171.1553,19.5825 170.5244,19.5825 Q169.1797,19.5825 168.4949,20.6492 Q167.8101,21.7158 167.8101,23.8159 Q167.8101,25.9077 168.4949,26.9744 Q169.1797,28.041 170.5244,28.041 Q171.1553,28.041 171.7488,27.7712 Q172.3423,27.5015 172.9731,26.9204 Z "/><text fill="#000000" font-family="sans-serif" font-size="12" lengthAdjust="spacingAndGlyphs" textLength="29" x="190" y="28.5352">Form</text><line style="stroke: #A80036; stroke-width: 1.5;" x1="129" x2="248" y1="40" y2="40"/><rect fill="none" height="6" style="stroke: #C82930; stroke-width: 1.0;" width="6" x="136" y="48.9775"/><text fill="#000000" font-family="sans-serif" font-size="11" lengthAdjust="spacingAndGlyphs" textLength="27" x="148" y="54.6348">x: int</text><rect fill="none" height="6" style="stroke: #C82930; stroke-width: 1.0;" width="6" x="136" y="61.9326"/><text fill="#000000" font-family="sans-serif" font-size="11" lengthAdjust="spacingAndGlyphs" textLength="26" x="148" y="67.5898">y: int</text><line style="stroke: #A80036; stroke-width: 1.5;" x1="129" x2="248" y1="73.9102" y2="73.9102"/><ellipse cx="139" cy="85.8877" fill="#84BE84" rx="3" ry="3" style="stroke: #038048; stroke-width: 1.0;"/><text fill="#000000" font-family="sans-serif" font-size="11" lengthAdjust="spacingAndGlyphs" textLength="95" x="148" y="88.5449">Form(x: int, y: int)</text><ellipse cx="139" cy="98.8428" fill="#84BE84" rx="3" ry="3" style="stroke: #038048; stroke-width: 1.0;"/><text fill="#000000" font-family="sans-serif" font-size="11" lengthAdjust="spacingAndGlyphs" textLength="52" x="148" y="101.5">getX(): int</text><ellipse cx="139" cy="111.7979" fill="#84BE84" rx="3" ry="3" style="stroke: #038048; stroke-width: 1.0;"/><text fill="#000000" font-family="sans-serif" font-size="11" lengthAdjust="spacingAndGlyphs" textLength="52" x="148" y="114.4551">getY(): int</text><!--class Dreieck--><rect fill="#FEFECE" filter="url(#f126trzc9q4k3q)" height="125.7305" id="Dreieck" style="stroke: #A80036; stroke-width: 1.5;" width="305" x="434" y="181"/><ellipse cx="560.25" cy="197" fill="#ADD1B2" rx="11" ry="11" style="stroke: #A80036; stroke-width: 1.0;"/><path d="M563.2231,202.6431 Q562.6421,202.9419 562.0029,203.0913 Q561.3638,203.2407 560.6582,203.2407 Q558.1514,203.2407 556.8315,201.5889 Q555.5117,199.937 555.5117,196.8159 Q555.5117,193.6865 556.8315,192.0347 Q558.1514,190.3828 560.6582,190.3828 Q561.3638,190.3828 562.0112,190.5322 Q562.6587,190.6816 563.2231,190.9805 L563.2231,193.7031 Q562.5923,193.1221 561.9988,192.8523 Q561.4053,192.5825 560.7744,192.5825 Q559.4297,192.5825 558.7449,193.6492 Q558.0601,194.7158 558.0601,196.8159 Q558.0601,198.9077 558.7449,199.9744 Q559.4297,201.041 560.7744,201.041 Q561.4053,201.041 561.9988,200.7712 Q562.5923,200.5015 563.2231,199.9204 Z "/><text fill="#000000" font-family="sans-serif" font-size="12" lengthAdjust="spacingAndGlyphs" textLength="44" x="580.75" y="201.5352">Dreieck</text><line style="stroke: #A80036; stroke-width: 1.5;" x1="435" x2="738" y1="213" y2="213"/><rect fill="none" height="6" style="stroke: #C82930; stroke-width: 1.0;" width="6" x="442" y="221.9775"/><text fill="#000000" font-family="sans-serif" font-size="11" lengthAdjust="spacingAndGlyphs" textLength="34" x="454" y="227.6348">x1: int</text><rect fill="none" height="6" style="stroke: #C82930; stroke-width: 1.0;" width="6" x="442" y="234.9326"/><text fill="#000000" font-family="sans-serif" font-size="11" lengthAdjust="spacingAndGlyphs" textLength="34" x="454" y="240.5898">x2: int</text><rect fill="none" height="6" style="stroke: #C82930; stroke-width: 1.0;" width="6" x="442" y="247.8877"/><text fill="#000000" font-family="sans-serif" font-size="11" lengthAdjust="spacingAndGlyphs" textLength="33" x="454" y="253.5449">y1: int</text><rect fill="none" height="6" style="stroke: #C82930; stroke-width: 1.0;" width="6" x="442" y="260.8428"/><text fill="#000000" font-family="sans-serif" font-size="11" lengthAdjust="spacingAndGlyphs" textLength="33" x="454" y="266.5">y2: int</text><line style="stroke: #A80036; stroke-width: 1.5;" x1="435" x2="738" y1="272.8203" y2="272.8203"/><ellipse cx="445" cy="284.7979" fill="#84BE84" rx="3" ry="3" style="stroke: #038048; stroke-width: 1.0;"/><text fill="#000000" font-family="sans-serif" font-size="11" lengthAdjust="spacingAndGlyphs" textLength="279" x="454" y="287.4551">Dreieck(x0: int, y0: int, x1: int, y1: int, x2: int, y2: int)</text><ellipse cx="445" cy="297.7529" fill="#84BE84" rx="3" ry="3" style="stroke: #038048; stroke-width: 1.0;"/><text fill="#000000" font-family="sans-serif" font-size="11" lengthAdjust="spacingAndGlyphs" textLength="89" x="454" y="300.4102">toString(): String</text><!--class From--><rect fill="#FEFECE" filter="url(#f126trzc9q4k3q)" height="48" id="From" style="stroke: #A80036; stroke-width: 1.5;" width="61" x="556" y="40.5"/><ellipse cx="571" cy="56.5" fill="#ADD1B2" rx="11" ry="11" style="stroke: #A80036; stroke-width: 1.0;"/><path d="M573.9731,62.1431 Q573.3921,62.4419 572.7529,62.5913 Q572.1138,62.7407 571.4082,62.7407 Q568.9014,62.7407 567.5815,61.0889 Q566.2617,59.437 566.2617,56.3159 Q566.2617,53.1865 567.5815,51.5347 Q568.9014,49.8828 571.4082,49.8828 Q572.1138,49.8828 572.7612,50.0322 Q573.4087,50.1816 573.9731,50.4805 L573.9731,53.2031 Q573.3423,52.6221 572.7488,52.3523 Q572.1553,52.0825 571.5244,52.0825 Q570.1797,52.0825 569.4949,53.1492 Q568.8101,54.2158 568.8101,56.3159 Q568.8101,58.4077 569.4949,59.4744 Q570.1797,60.541 571.5244,60.541 Q572.1553,60.541 572.7488,60.2712 Q573.3423,60.0015 573.9731,59.4204 Z "/><text fill="#000000" font-family="sans-serif" font-size="12" lengthAdjust="spacingAndGlyphs" textLength="29" x="585" y="61.0352">From</text><line style="stroke: #A80036; stroke-width: 1.5;" x1="557" x2="616" y1="72.5" y2="72.5"/><line style="stroke: #A80036; stroke-width: 1.5;" x1="557" x2="616" y1="80.5" y2="80.5"/><!--class Kreis--><rect fill="#FEFECE" filter="url(#f126trzc9q4k3q)" height="86.8652" id="Kreis" style="stroke: #A80036; stroke-width: 1.5;" width="151" x="6" y="200.5"/><ellipse cx="62.75" cy="216.5" fill="#ADD1B2" rx="11" ry="11" style="stroke: #A80036; stroke-width: 1.0;"/><path d="M65.7231,222.1431 Q65.1421,222.4419 64.5029,222.5913 Q63.8638,222.7407 63.1582,222.7407 Q60.6514,222.7407 59.3315,221.0889 Q58.0117,219.437 58.0117,216.3159 Q58.0117,213.1865 59.3315,211.5347 Q60.6514,209.8828 63.1582,209.8828 Q63.8638,209.8828 64.5112,210.0322 Q65.1587,210.1816 65.7231,210.4805 L65.7231,213.2031 Q65.0923,212.6221 64.4988,212.3523 Q63.9053,212.0825 63.2744,212.0825 Q61.9297,212.0825 61.2449,213.1492 Q60.5601,214.2158 60.5601,216.3159 Q60.5601,218.4077 61.2449,219.4744 Q61.9297,220.541 63.2744,220.541 Q63.9053,220.541 64.4988,220.2712 Q65.0923,220.0015 65.7231,219.4204 Z "/><text fill="#000000" font-family="sans-serif" font-size="12" lengthAdjust="spacingAndGlyphs" textLength="29" x="83.25" y="221.0352">Kreis</text><line style="stroke: #A80036; stroke-width: 1.5;" x1="7" x2="156" y1="232.5" y2="232.5"/><rect fill="none" height="6" style="stroke: #C82930; stroke-width: 1.0;" width="6" x="14" y="241.4775"/><text fill="#000000" font-family="sans-serif" font-size="11" lengthAdjust="spacingAndGlyphs" textLength="54" x="26" y="247.1348">radius: int</text><line style="stroke: #A80036; stroke-width: 1.5;" x1="7" x2="156" y1="253.4551" y2="253.4551"/><ellipse cx="17" cy="265.4326" fill="#84BE84" rx="3" ry="3" style="stroke: #038048; stroke-width: 1.0;"/><text fill="#000000" font-family="sans-serif" font-size="11" lengthAdjust="spacingAndGlyphs" textLength="125" x="26" y="268.0898">Kreis(x: int, y: int, r: int)</text><ellipse cx="17" cy="278.3877" fill="#84BE84" rx="3" ry="3" style="stroke: #038048; stroke-width: 1.0;"/><text fill="#000000" font-family="sans-serif" font-size="11" lengthAdjust="spacingAndGlyphs" textLength="89" x="26" y="281.0449">toString(): String</text><!--class Rechteck--><rect fill="#FEFECE" filter="url(#f126trzc9q4k3q)" height="99.8203" id="Rechteck" style="stroke: #A80036; stroke-width: 1.5;" width="207" x="192" y="194"/><ellipse cx="265.25" cy="210" fill="#ADD1B2" rx="11" ry="11" style="stroke: #A80036; stroke-width: 1.0;"/><path d="M268.2231,215.6431 Q267.6421,215.9419 267.0029,216.0913 Q266.3638,216.2407 265.6582,216.2407 Q263.1514,216.2407 261.8315,214.5889 Q260.5117,212.937 260.5117,209.8159 Q260.5117,206.6865 261.8315,205.0347 Q263.1514,203.3828 265.6582,203.3828 Q266.3638,203.3828 267.0112,203.5322 Q267.6587,203.6816 268.2231,203.9805 L268.2231,206.7031 Q267.5923,206.1221 266.9988,205.8523 Q266.4053,205.5825 265.7744,205.5825 Q264.4297,205.5825 263.7449,206.6492 Q263.0601,207.7158 263.0601,209.8159 Q263.0601,211.9077 263.7449,212.9744 Q264.4297,214.041 265.7744,214.041 Q266.4053,214.041 266.9988,213.7712 Q267.5923,213.5015 268.2231,212.9204 Z "/><text fill="#000000" font-family="sans-serif" font-size="12" lengthAdjust="spacingAndGlyphs" textLength="52" x="285.75" y="214.5352">Rechteck</text><line style="stroke: #A80036; stroke-width: 1.5;" x1="193" x2="398" y1="226" y2="226"/><rect fill="none" height="6" style="stroke: #C82930; stroke-width: 1.0;" width="6" x="200" y="234.9775"/><text fill="#000000" font-family="sans-serif" font-size="11" lengthAdjust="spacingAndGlyphs" textLength="51" x="212" y="240.6348">breite: int</text><rect fill="none" height="6" style="stroke: #C82930; stroke-width: 1.0;" width="6" x="200" y="247.9326"/><text fill="#000000" font-family="sans-serif" font-size="11" lengthAdjust="spacingAndGlyphs" textLength="53" x="212" y="253.5898">hoehe: int</text><line style="stroke: #A80036; stroke-width: 1.5;" x1="193" x2="398" y1="259.9102" y2="259.9102"/><ellipse cx="203" cy="271.8877" fill="#84BE84" rx="3" ry="3" style="stroke: #038048; stroke-width: 1.0;"/><text fill="#000000" font-family="sans-serif" font-size="11" lengthAdjust="spacingAndGlyphs" textLength="181" x="212" y="274.5449">Rechteck(x: int, y: int, b: int, h: int)</text><ellipse cx="203" cy="284.8428" fill="#84BE84" rx="3" ry="3" style="stroke: #038048; stroke-width: 1.0;"/><text fill="#000000" font-family="sans-serif" font-size="11" lengthAdjust="spacingAndGlyphs" textLength="89" x="212" y="287.5">toString(): String</text><!--link From to Dreieck--><path d="M586.5,108.9011 C586.5,130.6037 586.5,157.105 586.5,180.8688 " fill="none" id="From-Dreieck" style="stroke: #A80036; stroke-width: 1.0;"/><polygon fill="none" points="579.5001,108.7082,586.5,88.7082,593.5001,108.7081,579.5001,108.7082" style="stroke: #A80036; stroke-width: 1.0;"/><!--link Form to Kreis--><path d="M144.348,138.5681 C131.8176,159.5888 118.5811,181.7939 107.5041,200.3762 " fill="none" id="Form-Kreis" style="stroke: #A80036; stroke-width: 1.0;"/><polygon fill="none" points="138.3911,134.89,154.6445,121.2949,150.4166,142.0585,138.3911,134.89" style="stroke: #A80036; stroke-width: 1.0;"/><!--link Form to Rechteck--><path d="M232.7502,138.7328 C243.834,157.3267 255.4641,176.837 265.659,193.9396 " fill="none" id="Form-Rechteck" style="stroke: #A80036; stroke-width: 1.0;"/><polygon fill="none" points="226.5834,142.0585,222.3555,121.2949,238.6089,134.89,226.5834,142.0585" style="stroke: #A80036; stroke-width: 1.0;"/><!--
@startuml formen

class Form {
	-x: int
	-y: int

	+Form(x: int, y: int)
	+getX(): int
	+getY(): int
}

class Dreieck extends From {
	-x1: int
	-x2: int
	-y1: int
	-y2: int

	+Dreieck(x0: int, y0: int, x1: int, y1: int, x2: int, y2: int)
	+toString(): String
}

class Kreis extends Form {
	-radius: int

	+Kreis(x: int, y: int, r: int)
	+toString(): String
}

class Rechteck extends Form {
	-breite: int
	-hoehe: int	

	+Rechteck(x: int, y: int, b: int, h: int)
	+toString(): String
}

@enduml

PlantUML version 1.2017.16(Sun Sep 03 12:53:37 CEST 2017)
(GPL source distribution)
Java Runtime: Java(TM) SE Runtime Environment
JVM: Java HotSpot(TM) 64-Bit Server VM
Java Version: 1.8.0_144-b01
Operating System: Mac OS X
OS Version: 10.13.4
Default Encoding: UTF-8
Language: en
Country: US
--></g></svg>